<mxfile host="www.draw.io" modified="2020-02-17T15:15:17.291Z" agent="Mozilla/5.0 (X11; Ubuntu; Linux x86_64; rv:73.0) Gecko/20100101 Firefox/73.0" etag="56t8VuZkzOdO4hAztofO" version="12.7.0" type="github">
  <diagram id="oJLfNqRauhqa5xgDHrzO" name="Page-1">
    <mxGraphModel dx="5705" dy="2254" grid="1" gridSize="10" guides="1" tooltips="1" connect="1" arrows="1" fold="1" page="1" pageScale="1" pageWidth="827" pageHeight="1169" math="0" shadow="0">
      <root>
        <mxCell id="0"/>
        <mxCell id="1" parent="0"/>
        <mxCell id="fyGPEh1QH60FLGqY0S4b-1" value="Utente" style="swimlane;fontStyle=0;childLayout=stackLayout;horizontal=1;startSize=26;fillColor=#e0e0e0;horizontalStack=0;resizeParent=1;resizeParentMax=0;resizeLast=0;collapsible=1;marginBottom=0;swimlaneFillColor=#ffffff;align=center;fontSize=14;" parent="1" vertex="1">
          <mxGeometry x="-390" y="668" width="220" height="160" as="geometry"/>
        </mxCell>
        <mxCell id="fyGPEh1QH60FLGqY0S4b-2" value="idUtente" style="shape=partialRectangle;top=0;left=0;right=0;bottom=1;align=left;verticalAlign=middle;fillColor=none;spacingLeft=34;spacingRight=4;overflow=hidden;rotatable=0;points=[[0,0.5],[1,0.5]];portConstraint=eastwest;dropTarget=0;fontStyle=5;fontSize=12;" parent="fyGPEh1QH60FLGqY0S4b-1" vertex="1">
          <mxGeometry y="26" width="220" height="30" as="geometry"/>
        </mxCell>
        <mxCell id="fyGPEh1QH60FLGqY0S4b-3" value="PK" style="shape=partialRectangle;top=0;left=0;bottom=0;fillColor=none;align=left;verticalAlign=middle;spacingLeft=4;spacingRight=4;overflow=hidden;rotatable=0;points=[];portConstraint=eastwest;part=1;fontSize=12;" parent="fyGPEh1QH60FLGqY0S4b-2" vertex="1" connectable="0">
          <mxGeometry width="30" height="30" as="geometry"/>
        </mxCell>
        <mxCell id="fyGPEh1QH60FLGqY0S4b-4" value="Nome" style="shape=partialRectangle;top=0;left=0;right=0;bottom=0;align=left;verticalAlign=top;fillColor=none;spacingLeft=34;spacingRight=4;overflow=hidden;rotatable=0;points=[[0,0.5],[1,0.5]];portConstraint=eastwest;dropTarget=0;fontSize=12;" parent="fyGPEh1QH60FLGqY0S4b-1" vertex="1">
          <mxGeometry y="56" width="220" height="26" as="geometry"/>
        </mxCell>
        <mxCell id="fyGPEh1QH60FLGqY0S4b-5" value="" style="shape=partialRectangle;top=0;left=0;bottom=0;fillColor=none;align=left;verticalAlign=top;spacingLeft=4;spacingRight=4;overflow=hidden;rotatable=0;points=[];portConstraint=eastwest;part=1;fontSize=12;" parent="fyGPEh1QH60FLGqY0S4b-4" vertex="1" connectable="0">
          <mxGeometry width="30" height="26" as="geometry"/>
        </mxCell>
        <mxCell id="fyGPEh1QH60FLGqY0S4b-6" value="Cognome" style="shape=partialRectangle;top=0;left=0;right=0;bottom=0;align=left;verticalAlign=top;fillColor=none;spacingLeft=34;spacingRight=4;overflow=hidden;rotatable=0;points=[[0,0.5],[1,0.5]];portConstraint=eastwest;dropTarget=0;fontSize=12;" parent="fyGPEh1QH60FLGqY0S4b-1" vertex="1">
          <mxGeometry y="82" width="220" height="26" as="geometry"/>
        </mxCell>
        <mxCell id="fyGPEh1QH60FLGqY0S4b-7" value="" style="shape=partialRectangle;top=0;left=0;bottom=0;fillColor=none;align=left;verticalAlign=top;spacingLeft=4;spacingRight=4;overflow=hidden;rotatable=0;points=[];portConstraint=eastwest;part=1;fontSize=12;" parent="fyGPEh1QH60FLGqY0S4b-6" vertex="1" connectable="0">
          <mxGeometry width="30" height="26" as="geometry"/>
        </mxCell>
        <mxCell id="cOFafZk5vDdd5omZY6wX-30" value="E-Mail" style="shape=partialRectangle;top=0;left=0;right=0;bottom=0;align=left;verticalAlign=top;fillColor=none;spacingLeft=34;spacingRight=4;overflow=hidden;rotatable=0;points=[[0,0.5],[1,0.5]];portConstraint=eastwest;dropTarget=0;fontSize=12;" vertex="1" parent="fyGPEh1QH60FLGqY0S4b-1">
          <mxGeometry y="108" width="220" height="26" as="geometry"/>
        </mxCell>
        <mxCell id="cOFafZk5vDdd5omZY6wX-31" value="" style="shape=partialRectangle;top=0;left=0;bottom=0;fillColor=none;align=left;verticalAlign=top;spacingLeft=4;spacingRight=4;overflow=hidden;rotatable=0;points=[];portConstraint=eastwest;part=1;fontSize=12;" vertex="1" connectable="0" parent="cOFafZk5vDdd5omZY6wX-30">
          <mxGeometry width="30" height="26" as="geometry"/>
        </mxCell>
        <mxCell id="fyGPEh1QH60FLGqY0S4b-8" value="Tipo" style="shape=partialRectangle;top=0;left=0;right=0;bottom=0;align=left;verticalAlign=top;fillColor=none;spacingLeft=34;spacingRight=4;overflow=hidden;rotatable=0;points=[[0,0.5],[1,0.5]];portConstraint=eastwest;dropTarget=0;fontSize=12;" parent="fyGPEh1QH60FLGqY0S4b-1" vertex="1">
          <mxGeometry y="134" width="220" height="26" as="geometry"/>
        </mxCell>
        <mxCell id="fyGPEh1QH60FLGqY0S4b-9" value="" style="shape=partialRectangle;top=0;left=0;bottom=0;fillColor=none;align=left;verticalAlign=top;spacingLeft=4;spacingRight=4;overflow=hidden;rotatable=0;points=[];portConstraint=eastwest;part=1;fontSize=12;" parent="fyGPEh1QH60FLGqY0S4b-8" vertex="1" connectable="0">
          <mxGeometry width="30" height="26" as="geometry"/>
        </mxCell>
        <mxCell id="kGWHChFnNLOmyEC3T0Xx-23" style="edgeStyle=orthogonalEdgeStyle;rounded=0;orthogonalLoop=1;jettySize=auto;html=1;exitX=1;exitY=0.5;exitDx=0;exitDy=0;startArrow=none;startFill=0;endArrow=none;endFill=0;" parent="1" source="fyGPEh1QH60FLGqY0S4b-12" edge="1">
          <mxGeometry relative="1" as="geometry">
            <mxPoint x="-390" y="748" as="targetPoint"/>
          </mxGeometry>
        </mxCell>
        <mxCell id="kGWHChFnNLOmyEC3T0Xx-25" style="edgeStyle=orthogonalEdgeStyle;rounded=0;orthogonalLoop=1;jettySize=auto;html=1;exitX=0;exitY=0.5;exitDx=0;exitDy=0;startArrow=none;startFill=0;endArrow=none;endFill=0;" parent="1" source="fyGPEh1QH60FLGqY0S4b-12" target="fyGPEh1QH60FLGqY0S4b-13" edge="1">
          <mxGeometry relative="1" as="geometry">
            <Array as="points">
              <mxPoint x="-560" y="752"/>
              <mxPoint x="-560" y="752"/>
            </Array>
          </mxGeometry>
        </mxCell>
        <mxCell id="fyGPEh1QH60FLGqY0S4b-12" value="Frequenta" style="shape=rhombus;perimeter=rhombusPerimeter;whiteSpace=wrap;html=1;align=center;" parent="1" vertex="1">
          <mxGeometry x="-540" y="721.5" width="120" height="60" as="geometry"/>
        </mxCell>
        <mxCell id="fyGPEh1QH60FLGqY0S4b-13" value="Sede" style="swimlane;fontStyle=0;childLayout=stackLayout;horizontal=1;startSize=26;fillColor=#e0e0e0;horizontalStack=0;resizeParent=1;resizeParentMax=0;resizeLast=0;collapsible=1;marginBottom=0;swimlaneFillColor=#ffffff;align=center;fontSize=14;" parent="1" vertex="1">
          <mxGeometry x="-730" y="679.5" width="160" height="170" as="geometry"/>
        </mxCell>
        <mxCell id="fyGPEh1QH60FLGqY0S4b-14" value="idSede" style="shape=partialRectangle;top=0;left=0;right=0;bottom=1;align=left;verticalAlign=middle;fillColor=none;spacingLeft=34;spacingRight=4;overflow=hidden;rotatable=0;points=[[0,0.5],[1,0.5]];portConstraint=eastwest;dropTarget=0;fontStyle=5;fontSize=12;" parent="fyGPEh1QH60FLGqY0S4b-13" vertex="1">
          <mxGeometry y="26" width="160" height="30" as="geometry"/>
        </mxCell>
        <mxCell id="fyGPEh1QH60FLGqY0S4b-15" value="PK" style="shape=partialRectangle;top=0;left=0;bottom=0;fillColor=none;align=left;verticalAlign=middle;spacingLeft=4;spacingRight=4;overflow=hidden;rotatable=0;points=[];portConstraint=eastwest;part=1;fontSize=12;" parent="fyGPEh1QH60FLGqY0S4b-14" vertex="1" connectable="0">
          <mxGeometry width="30" height="30" as="geometry"/>
        </mxCell>
        <mxCell id="fyGPEh1QH60FLGqY0S4b-16" value="Nome" style="shape=partialRectangle;top=0;left=0;right=0;bottom=0;align=left;verticalAlign=top;fillColor=none;spacingLeft=34;spacingRight=4;overflow=hidden;rotatable=0;points=[[0,0.5],[1,0.5]];portConstraint=eastwest;dropTarget=0;fontSize=12;" parent="fyGPEh1QH60FLGqY0S4b-13" vertex="1">
          <mxGeometry y="56" width="160" height="26" as="geometry"/>
        </mxCell>
        <mxCell id="fyGPEh1QH60FLGqY0S4b-17" value="" style="shape=partialRectangle;top=0;left=0;bottom=0;fillColor=none;align=left;verticalAlign=top;spacingLeft=4;spacingRight=4;overflow=hidden;rotatable=0;points=[];portConstraint=eastwest;part=1;fontSize=12;" parent="fyGPEh1QH60FLGqY0S4b-16" vertex="1" connectable="0">
          <mxGeometry width="30" height="26" as="geometry"/>
        </mxCell>
        <mxCell id="fyGPEh1QH60FLGqY0S4b-18" value="E-Mail" style="shape=partialRectangle;top=0;left=0;right=0;bottom=0;align=left;verticalAlign=top;fillColor=none;spacingLeft=34;spacingRight=4;overflow=hidden;rotatable=0;points=[[0,0.5],[1,0.5]];portConstraint=eastwest;dropTarget=0;fontSize=12;" parent="fyGPEh1QH60FLGqY0S4b-13" vertex="1">
          <mxGeometry y="82" width="160" height="26" as="geometry"/>
        </mxCell>
        <mxCell id="fyGPEh1QH60FLGqY0S4b-19" value="" style="shape=partialRectangle;top=0;left=0;bottom=0;fillColor=none;align=left;verticalAlign=top;spacingLeft=4;spacingRight=4;overflow=hidden;rotatable=0;points=[];portConstraint=eastwest;part=1;fontSize=12;" parent="fyGPEh1QH60FLGqY0S4b-18" vertex="1" connectable="0">
          <mxGeometry width="30" height="26" as="geometry"/>
        </mxCell>
        <mxCell id="fyGPEh1QH60FLGqY0S4b-20" value="Telefono" style="shape=partialRectangle;top=0;left=0;right=0;bottom=0;align=left;verticalAlign=top;fillColor=none;spacingLeft=34;spacingRight=4;overflow=hidden;rotatable=0;points=[[0,0.5],[1,0.5]];portConstraint=eastwest;dropTarget=0;fontSize=12;" parent="fyGPEh1QH60FLGqY0S4b-13" vertex="1">
          <mxGeometry y="108" width="160" height="26" as="geometry"/>
        </mxCell>
        <mxCell id="fyGPEh1QH60FLGqY0S4b-21" value="" style="shape=partialRectangle;top=0;left=0;bottom=0;fillColor=none;align=left;verticalAlign=top;spacingLeft=4;spacingRight=4;overflow=hidden;rotatable=0;points=[];portConstraint=eastwest;part=1;fontSize=12;" parent="fyGPEh1QH60FLGqY0S4b-20" vertex="1" connectable="0">
          <mxGeometry width="30" height="26" as="geometry"/>
        </mxCell>
        <mxCell id="cOFafZk5vDdd5omZY6wX-28" value="Indirizzo" style="shape=partialRectangle;top=0;left=0;right=0;bottom=0;align=left;verticalAlign=top;fillColor=none;spacingLeft=34;spacingRight=4;overflow=hidden;rotatable=0;points=[[0,0.5],[1,0.5]];portConstraint=eastwest;dropTarget=0;fontSize=12;" vertex="1" parent="fyGPEh1QH60FLGqY0S4b-13">
          <mxGeometry y="134" width="160" height="26" as="geometry"/>
        </mxCell>
        <mxCell id="cOFafZk5vDdd5omZY6wX-29" value="" style="shape=partialRectangle;top=0;left=0;bottom=0;fillColor=none;align=left;verticalAlign=top;spacingLeft=4;spacingRight=4;overflow=hidden;rotatable=0;points=[];portConstraint=eastwest;part=1;fontSize=12;" vertex="1" connectable="0" parent="cOFafZk5vDdd5omZY6wX-28">
          <mxGeometry width="30" height="26" as="geometry"/>
        </mxCell>
        <mxCell id="fyGPEh1QH60FLGqY0S4b-22" value="" style="shape=partialRectangle;top=0;left=0;right=0;bottom=0;align=left;verticalAlign=top;fillColor=none;spacingLeft=34;spacingRight=4;overflow=hidden;rotatable=0;points=[[0,0.5],[1,0.5]];portConstraint=eastwest;dropTarget=0;fontSize=12;" parent="fyGPEh1QH60FLGqY0S4b-13" vertex="1">
          <mxGeometry y="160" width="160" height="10" as="geometry"/>
        </mxCell>
        <mxCell id="fyGPEh1QH60FLGqY0S4b-23" value="" style="shape=partialRectangle;top=0;left=0;bottom=0;fillColor=none;align=left;verticalAlign=top;spacingLeft=4;spacingRight=4;overflow=hidden;rotatable=0;points=[];portConstraint=eastwest;part=1;fontSize=12;" parent="fyGPEh1QH60FLGqY0S4b-22" vertex="1" connectable="0">
          <mxGeometry width="30" height="10" as="geometry"/>
        </mxCell>
        <mxCell id="fyGPEh1QH60FLGqY0S4b-36" value="[1,N]" style="text;html=1;align=center;verticalAlign=middle;resizable=0;points=[];autosize=1;" parent="1" vertex="1">
          <mxGeometry x="-570" y="726.5" width="40" height="20" as="geometry"/>
        </mxCell>
        <mxCell id="fyGPEh1QH60FLGqY0S4b-37" value="[1,N]" style="text;html=1;align=center;verticalAlign=middle;resizable=0;points=[];autosize=1;" parent="1" vertex="1">
          <mxGeometry x="-430" y="726.5" width="40" height="20" as="geometry"/>
        </mxCell>
        <mxCell id="cOFafZk5vDdd5omZY6wX-3" style="edgeStyle=orthogonalEdgeStyle;rounded=0;orthogonalLoop=1;jettySize=auto;html=1;exitX=1;exitY=0.5;exitDx=0;exitDy=0;endArrow=none;endFill=0;" edge="1" parent="1" source="fyGPEh1QH60FLGqY0S4b-38" target="fyGPEh1QH60FLGqY0S4b-46">
          <mxGeometry relative="1" as="geometry"/>
        </mxCell>
        <mxCell id="cOFafZk5vDdd5omZY6wX-4" style="edgeStyle=orthogonalEdgeStyle;rounded=0;orthogonalLoop=1;jettySize=auto;html=1;exitX=0;exitY=0.5;exitDx=0;exitDy=0;endArrow=none;endFill=0;" edge="1" parent="1" source="fyGPEh1QH60FLGqY0S4b-38" target="fyGPEh1QH60FLGqY0S4b-6">
          <mxGeometry relative="1" as="geometry">
            <Array as="points">
              <mxPoint x="20" y="763"/>
            </Array>
          </mxGeometry>
        </mxCell>
        <mxCell id="cOFafZk5vDdd5omZY6wX-21" style="edgeStyle=orthogonalEdgeStyle;rounded=0;orthogonalLoop=1;jettySize=auto;html=1;exitX=0.5;exitY=0;exitDx=0;exitDy=0;startArrow=none;startFill=0;endArrow=oval;endFill=0;" edge="1" parent="1" source="fyGPEh1QH60FLGqY0S4b-38" target="kGWHChFnNLOmyEC3T0Xx-70">
          <mxGeometry relative="1" as="geometry"/>
        </mxCell>
        <mxCell id="cOFafZk5vDdd5omZY6wX-22" style="edgeStyle=orthogonalEdgeStyle;rounded=0;orthogonalLoop=1;jettySize=auto;html=1;exitX=1;exitY=0;exitDx=0;exitDy=0;entryX=0.622;entryY=0.966;entryDx=0;entryDy=0;entryPerimeter=0;startArrow=none;startFill=0;endArrow=oval;endFill=0;" edge="1" parent="1" source="fyGPEh1QH60FLGqY0S4b-38" target="fyGPEh1QH60FLGqY0S4b-39">
          <mxGeometry relative="1" as="geometry"/>
        </mxCell>
        <mxCell id="cOFafZk5vDdd5omZY6wX-23" style="edgeStyle=orthogonalEdgeStyle;rounded=0;orthogonalLoop=1;jettySize=auto;html=1;exitX=0;exitY=0;exitDx=0;exitDy=0;entryX=0.523;entryY=1.104;entryDx=0;entryDy=0;entryPerimeter=0;startArrow=none;startFill=0;endArrow=oval;endFill=0;" edge="1" parent="1" source="fyGPEh1QH60FLGqY0S4b-38" target="fyGPEh1QH60FLGqY0S4b-40">
          <mxGeometry relative="1" as="geometry"/>
        </mxCell>
        <mxCell id="cOFafZk5vDdd5omZY6wX-25" style="edgeStyle=orthogonalEdgeStyle;rounded=0;orthogonalLoop=1;jettySize=auto;html=1;exitX=0.5;exitY=1;exitDx=0;exitDy=0;startArrow=none;startFill=0;endArrow=oval;endFill=0;" edge="1" parent="1" source="fyGPEh1QH60FLGqY0S4b-38" target="cOFafZk5vDdd5omZY6wX-24">
          <mxGeometry relative="1" as="geometry"/>
        </mxCell>
        <mxCell id="fyGPEh1QH60FLGqY0S4b-38" value="Gioca" style="shape=rhombus;perimeter=rhombusPerimeter;whiteSpace=wrap;html=1;align=center;" parent="1" vertex="1">
          <mxGeometry x="20" y="729" width="120" height="60" as="geometry"/>
        </mxCell>
        <mxCell id="fyGPEh1QH60FLGqY0S4b-39" value="Data" style="text;html=1;align=center;verticalAlign=middle;resizable=0;points=[];autosize=1;" parent="1" vertex="1">
          <mxGeometry x="110" y="701.5" width="40" height="20" as="geometry"/>
        </mxCell>
        <mxCell id="fyGPEh1QH60FLGqY0S4b-40" value="Punteggio" style="text;html=1;align=center;verticalAlign=middle;resizable=0;points=[];autosize=1;" parent="1" vertex="1">
          <mxGeometry x="-10" y="701.5" width="70" height="20" as="geometry"/>
        </mxCell>
        <mxCell id="fyGPEh1QH60FLGqY0S4b-41" value="Gioco" style="swimlane;fontStyle=0;childLayout=stackLayout;horizontal=1;startSize=26;fillColor=#e0e0e0;horizontalStack=0;resizeParent=1;resizeParentMax=0;resizeLast=0;collapsible=1;marginBottom=0;swimlaneFillColor=#ffffff;align=center;fontSize=14;" parent="1" vertex="1">
          <mxGeometry x="270" y="690" width="160" height="118" as="geometry"/>
        </mxCell>
        <mxCell id="fyGPEh1QH60FLGqY0S4b-42" value="idGioco" style="shape=partialRectangle;top=0;left=0;right=0;bottom=1;align=left;verticalAlign=middle;fillColor=none;spacingLeft=34;spacingRight=4;overflow=hidden;rotatable=0;points=[[0,0.5],[1,0.5]];portConstraint=eastwest;dropTarget=0;fontStyle=5;fontSize=12;" parent="fyGPEh1QH60FLGqY0S4b-41" vertex="1">
          <mxGeometry y="26" width="160" height="30" as="geometry"/>
        </mxCell>
        <mxCell id="fyGPEh1QH60FLGqY0S4b-43" value="PK" style="shape=partialRectangle;top=0;left=0;bottom=0;fillColor=none;align=left;verticalAlign=middle;spacingLeft=4;spacingRight=4;overflow=hidden;rotatable=0;points=[];portConstraint=eastwest;part=1;fontSize=12;" parent="fyGPEh1QH60FLGqY0S4b-42" vertex="1" connectable="0">
          <mxGeometry width="30" height="30" as="geometry"/>
        </mxCell>
        <mxCell id="fyGPEh1QH60FLGqY0S4b-46" value="Nome" style="shape=partialRectangle;top=0;left=0;right=0;bottom=0;align=left;verticalAlign=top;fillColor=none;spacingLeft=34;spacingRight=4;overflow=hidden;rotatable=0;points=[[0,0.5],[1,0.5]];portConstraint=eastwest;dropTarget=0;fontSize=12;" parent="fyGPEh1QH60FLGqY0S4b-41" vertex="1">
          <mxGeometry y="56" width="160" height="26" as="geometry"/>
        </mxCell>
        <mxCell id="fyGPEh1QH60FLGqY0S4b-47" value="" style="shape=partialRectangle;top=0;left=0;bottom=0;fillColor=none;align=left;verticalAlign=top;spacingLeft=4;spacingRight=4;overflow=hidden;rotatable=0;points=[];portConstraint=eastwest;part=1;fontSize=12;" parent="fyGPEh1QH60FLGqY0S4b-46" vertex="1" connectable="0">
          <mxGeometry width="30" height="26" as="geometry"/>
        </mxCell>
        <mxCell id="fyGPEh1QH60FLGqY0S4b-48" value="Regole" style="shape=partialRectangle;top=0;left=0;right=0;bottom=0;align=left;verticalAlign=top;fillColor=none;spacingLeft=34;spacingRight=4;overflow=hidden;rotatable=0;points=[[0,0.5],[1,0.5]];portConstraint=eastwest;dropTarget=0;fontSize=12;" parent="fyGPEh1QH60FLGqY0S4b-41" vertex="1">
          <mxGeometry y="82" width="160" height="26" as="geometry"/>
        </mxCell>
        <mxCell id="fyGPEh1QH60FLGqY0S4b-49" value="" style="shape=partialRectangle;top=0;left=0;bottom=0;fillColor=none;align=left;verticalAlign=top;spacingLeft=4;spacingRight=4;overflow=hidden;rotatable=0;points=[];portConstraint=eastwest;part=1;fontSize=12;" parent="fyGPEh1QH60FLGqY0S4b-48" vertex="1" connectable="0">
          <mxGeometry width="30" height="26" as="geometry"/>
        </mxCell>
        <mxCell id="fyGPEh1QH60FLGqY0S4b-50" value="" style="shape=partialRectangle;top=0;left=0;right=0;bottom=0;align=left;verticalAlign=top;fillColor=none;spacingLeft=34;spacingRight=4;overflow=hidden;rotatable=0;points=[[0,0.5],[1,0.5]];portConstraint=eastwest;dropTarget=0;fontSize=12;" parent="fyGPEh1QH60FLGqY0S4b-41" vertex="1">
          <mxGeometry y="108" width="160" height="10" as="geometry"/>
        </mxCell>
        <mxCell id="fyGPEh1QH60FLGqY0S4b-51" value="" style="shape=partialRectangle;top=0;left=0;bottom=0;fillColor=none;align=left;verticalAlign=top;spacingLeft=4;spacingRight=4;overflow=hidden;rotatable=0;points=[];portConstraint=eastwest;part=1;fontSize=12;" parent="fyGPEh1QH60FLGqY0S4b-50" vertex="1" connectable="0">
          <mxGeometry width="30" height="10" as="geometry"/>
        </mxCell>
        <mxCell id="kGWHChFnNLOmyEC3T0Xx-69" value="" style="edgeStyle=orthogonalEdgeStyle;rounded=0;orthogonalLoop=1;jettySize=auto;html=1;startArrow=none;startFill=0;endArrow=none;endFill=0;" parent="1" source="fyGPEh1QH60FLGqY0S4b-63" target="kGWHChFnNLOmyEC3T0Xx-28" edge="1">
          <mxGeometry relative="1" as="geometry"/>
        </mxCell>
        <mxCell id="fyGPEh1QH60FLGqY0S4b-63" value="DomandaVerbi" style="swimlane;fontStyle=0;childLayout=stackLayout;horizontal=1;startSize=26;fillColor=#e0e0e0;horizontalStack=0;resizeParent=1;resizeParentMax=0;resizeLast=0;collapsible=1;marginBottom=0;swimlaneFillColor=#ffffff;align=center;fontSize=14;" parent="1" vertex="1">
          <mxGeometry x="175" y="1024" width="170" height="160" as="geometry"/>
        </mxCell>
        <mxCell id="fyGPEh1QH60FLGqY0S4b-64" value="idDomandaV" style="shape=partialRectangle;top=0;left=0;right=0;bottom=1;align=left;verticalAlign=middle;fillColor=none;spacingLeft=34;spacingRight=4;overflow=hidden;rotatable=0;points=[[0,0.5],[1,0.5]];portConstraint=eastwest;dropTarget=0;fontStyle=5;fontSize=12;" parent="fyGPEh1QH60FLGqY0S4b-63" vertex="1">
          <mxGeometry y="26" width="170" height="30" as="geometry"/>
        </mxCell>
        <mxCell id="fyGPEh1QH60FLGqY0S4b-65" value="PK" style="shape=partialRectangle;top=0;left=0;bottom=0;fillColor=none;align=left;verticalAlign=middle;spacingLeft=4;spacingRight=4;overflow=hidden;rotatable=0;points=[];portConstraint=eastwest;part=1;fontSize=12;" parent="fyGPEh1QH60FLGqY0S4b-64" vertex="1" connectable="0">
          <mxGeometry width="30" height="30" as="geometry"/>
        </mxCell>
        <mxCell id="fyGPEh1QH60FLGqY0S4b-70" value="Testo" style="shape=partialRectangle;top=0;left=0;right=0;bottom=0;align=left;verticalAlign=top;fillColor=none;spacingLeft=34;spacingRight=4;overflow=hidden;rotatable=0;points=[[0,0.5],[1,0.5]];portConstraint=eastwest;dropTarget=0;fontSize=12;" parent="fyGPEh1QH60FLGqY0S4b-63" vertex="1">
          <mxGeometry y="56" width="170" height="26" as="geometry"/>
        </mxCell>
        <mxCell id="fyGPEh1QH60FLGqY0S4b-71" value="" style="shape=partialRectangle;top=0;left=0;bottom=0;fillColor=none;align=left;verticalAlign=top;spacingLeft=4;spacingRight=4;overflow=hidden;rotatable=0;points=[];portConstraint=eastwest;part=1;fontSize=12;" parent="fyGPEh1QH60FLGqY0S4b-70" vertex="1" connectable="0">
          <mxGeometry width="30" height="26" as="geometry"/>
        </mxCell>
        <mxCell id="kGWHChFnNLOmyEC3T0Xx-58" value="Difficoltà" style="shape=partialRectangle;top=0;left=0;right=0;bottom=0;align=left;verticalAlign=top;fillColor=none;spacingLeft=34;spacingRight=4;overflow=hidden;rotatable=0;points=[[0,0.5],[1,0.5]];portConstraint=eastwest;dropTarget=0;fontSize=12;" parent="fyGPEh1QH60FLGqY0S4b-63" vertex="1">
          <mxGeometry y="82" width="170" height="26" as="geometry"/>
        </mxCell>
        <mxCell id="kGWHChFnNLOmyEC3T0Xx-59" value="" style="shape=partialRectangle;top=0;left=0;bottom=0;fillColor=none;align=left;verticalAlign=top;spacingLeft=4;spacingRight=4;overflow=hidden;rotatable=0;points=[];portConstraint=eastwest;part=1;fontSize=12;" parent="kGWHChFnNLOmyEC3T0Xx-58" vertex="1" connectable="0">
          <mxGeometry width="30" height="26" as="geometry"/>
        </mxCell>
        <mxCell id="kGWHChFnNLOmyEC3T0Xx-146" value="Versione" style="shape=partialRectangle;top=0;left=0;right=0;bottom=0;align=left;verticalAlign=top;fillColor=none;spacingLeft=34;spacingRight=4;overflow=hidden;rotatable=0;points=[[0,0.5],[1,0.5]];portConstraint=eastwest;dropTarget=0;fontSize=12;" parent="fyGPEh1QH60FLGqY0S4b-63" vertex="1">
          <mxGeometry y="108" width="170" height="26" as="geometry"/>
        </mxCell>
        <mxCell id="kGWHChFnNLOmyEC3T0Xx-147" value="" style="shape=partialRectangle;top=0;left=0;bottom=0;fillColor=none;align=left;verticalAlign=top;spacingLeft=4;spacingRight=4;overflow=hidden;rotatable=0;points=[];portConstraint=eastwest;part=1;fontSize=12;" parent="kGWHChFnNLOmyEC3T0Xx-146" vertex="1" connectable="0">
          <mxGeometry width="30" height="26" as="geometry"/>
        </mxCell>
        <mxCell id="fyGPEh1QH60FLGqY0S4b-96" value="Punti" style="shape=partialRectangle;top=0;left=0;right=0;bottom=0;align=left;verticalAlign=top;fillColor=none;spacingLeft=34;spacingRight=4;overflow=hidden;rotatable=0;points=[[0,0.5],[1,0.5]];portConstraint=eastwest;dropTarget=0;fontSize=12;" parent="fyGPEh1QH60FLGqY0S4b-63" vertex="1">
          <mxGeometry y="134" width="170" height="26" as="geometry"/>
        </mxCell>
        <mxCell id="fyGPEh1QH60FLGqY0S4b-97" value="" style="shape=partialRectangle;top=0;left=0;bottom=0;fillColor=none;align=left;verticalAlign=top;spacingLeft=4;spacingRight=4;overflow=hidden;rotatable=0;points=[];portConstraint=eastwest;part=1;fontSize=12;" parent="fyGPEh1QH60FLGqY0S4b-96" vertex="1" connectable="0">
          <mxGeometry width="30" height="26" as="geometry"/>
        </mxCell>
        <mxCell id="fyGPEh1QH60FLGqY0S4b-74" value="Risposta" style="swimlane;fontStyle=0;childLayout=stackLayout;horizontal=1;startSize=26;fillColor=#e0e0e0;horizontalStack=0;resizeParent=1;resizeParentMax=0;resizeLast=0;collapsible=1;marginBottom=0;swimlaneFillColor=#ffffff;align=center;fontSize=14;" parent="1" vertex="1">
          <mxGeometry x="175" y="1320" width="170" height="118" as="geometry"/>
        </mxCell>
        <mxCell id="fyGPEh1QH60FLGqY0S4b-75" value="Risposta" style="shape=partialRectangle;top=0;left=0;right=0;bottom=1;align=left;verticalAlign=middle;fillColor=none;spacingLeft=34;spacingRight=4;overflow=hidden;rotatable=0;points=[[0,0.5],[1,0.5]];portConstraint=eastwest;dropTarget=0;fontStyle=5;fontSize=12;" parent="fyGPEh1QH60FLGqY0S4b-74" vertex="1">
          <mxGeometry y="26" width="170" height="30" as="geometry"/>
        </mxCell>
        <mxCell id="fyGPEh1QH60FLGqY0S4b-76" value="PK" style="shape=partialRectangle;top=0;left=0;bottom=0;fillColor=none;align=left;verticalAlign=middle;spacingLeft=4;spacingRight=4;overflow=hidden;rotatable=0;points=[];portConstraint=eastwest;part=1;fontSize=12;" parent="fyGPEh1QH60FLGqY0S4b-75" vertex="1" connectable="0">
          <mxGeometry width="30" height="30" as="geometry"/>
        </mxCell>
        <mxCell id="fyGPEh1QH60FLGqY0S4b-77" value="Punti" style="shape=partialRectangle;top=0;left=0;right=0;bottom=0;align=left;verticalAlign=top;fillColor=none;spacingLeft=34;spacingRight=4;overflow=hidden;rotatable=0;points=[[0,0.5],[1,0.5]];portConstraint=eastwest;dropTarget=0;fontSize=12;" parent="fyGPEh1QH60FLGqY0S4b-74" vertex="1">
          <mxGeometry y="56" width="170" height="26" as="geometry"/>
        </mxCell>
        <mxCell id="fyGPEh1QH60FLGqY0S4b-78" value="" style="shape=partialRectangle;top=0;left=0;bottom=0;fillColor=none;align=left;verticalAlign=top;spacingLeft=4;spacingRight=4;overflow=hidden;rotatable=0;points=[];portConstraint=eastwest;part=1;fontSize=12;" parent="fyGPEh1QH60FLGqY0S4b-77" vertex="1" connectable="0">
          <mxGeometry width="30" height="26" as="geometry"/>
        </mxCell>
        <mxCell id="fyGPEh1QH60FLGqY0S4b-79" value="Flag" style="shape=partialRectangle;top=0;left=0;right=0;bottom=0;align=left;verticalAlign=top;fillColor=none;spacingLeft=34;spacingRight=4;overflow=hidden;rotatable=0;points=[[0,0.5],[1,0.5]];portConstraint=eastwest;dropTarget=0;fontSize=12;" parent="fyGPEh1QH60FLGqY0S4b-74" vertex="1">
          <mxGeometry y="82" width="170" height="26" as="geometry"/>
        </mxCell>
        <mxCell id="fyGPEh1QH60FLGqY0S4b-80" value="" style="shape=partialRectangle;top=0;left=0;bottom=0;fillColor=none;align=left;verticalAlign=top;spacingLeft=4;spacingRight=4;overflow=hidden;rotatable=0;points=[];portConstraint=eastwest;part=1;fontSize=12;" parent="fyGPEh1QH60FLGqY0S4b-79" vertex="1" connectable="0">
          <mxGeometry width="30" height="26" as="geometry"/>
        </mxCell>
        <mxCell id="fyGPEh1QH60FLGqY0S4b-83" value="" style="shape=partialRectangle;top=0;left=0;right=0;bottom=0;align=left;verticalAlign=top;fillColor=none;spacingLeft=34;spacingRight=4;overflow=hidden;rotatable=0;points=[[0,0.5],[1,0.5]];portConstraint=eastwest;dropTarget=0;fontSize=12;" parent="fyGPEh1QH60FLGqY0S4b-74" vertex="1">
          <mxGeometry y="108" width="170" height="10" as="geometry"/>
        </mxCell>
        <mxCell id="fyGPEh1QH60FLGqY0S4b-84" value="" style="shape=partialRectangle;top=0;left=0;bottom=0;fillColor=none;align=left;verticalAlign=top;spacingLeft=4;spacingRight=4;overflow=hidden;rotatable=0;points=[];portConstraint=eastwest;part=1;fontSize=12;" parent="fyGPEh1QH60FLGqY0S4b-83" vertex="1" connectable="0">
          <mxGeometry width="30" height="10" as="geometry"/>
        </mxCell>
        <mxCell id="fyGPEh1QH60FLGqY0S4b-85" value="DomandaSinCon" style="swimlane;fontStyle=0;childLayout=stackLayout;horizontal=1;startSize=26;fillColor=#e0e0e0;horizontalStack=0;resizeParent=1;resizeParentMax=0;resizeLast=0;collapsible=1;marginBottom=0;swimlaneFillColor=#ffffff;align=center;fontSize=14;" parent="1" vertex="1">
          <mxGeometry x="455" y="1020" width="160" height="170" as="geometry"/>
        </mxCell>
        <mxCell id="fyGPEh1QH60FLGqY0S4b-86" value="idDomandaSC" style="shape=partialRectangle;top=0;left=0;right=0;bottom=1;align=left;verticalAlign=middle;fillColor=none;spacingLeft=34;spacingRight=4;overflow=hidden;rotatable=0;points=[[0,0.5],[1,0.5]];portConstraint=eastwest;dropTarget=0;fontStyle=5;fontSize=12;" parent="fyGPEh1QH60FLGqY0S4b-85" vertex="1">
          <mxGeometry y="26" width="160" height="30" as="geometry"/>
        </mxCell>
        <mxCell id="fyGPEh1QH60FLGqY0S4b-87" value="PK" style="shape=partialRectangle;top=0;left=0;bottom=0;fillColor=none;align=left;verticalAlign=middle;spacingLeft=4;spacingRight=4;overflow=hidden;rotatable=0;points=[];portConstraint=eastwest;part=1;fontSize=12;" parent="fyGPEh1QH60FLGqY0S4b-86" vertex="1" connectable="0">
          <mxGeometry width="30" height="30" as="geometry"/>
        </mxCell>
        <mxCell id="kGWHChFnNLOmyEC3T0Xx-148" value="Versione" style="shape=partialRectangle;top=0;left=0;right=0;bottom=0;align=left;verticalAlign=top;fillColor=none;spacingLeft=34;spacingRight=4;overflow=hidden;rotatable=0;points=[[0,0.5],[1,0.5]];portConstraint=eastwest;dropTarget=0;fontSize=12;" parent="fyGPEh1QH60FLGqY0S4b-85" vertex="1">
          <mxGeometry y="56" width="160" height="26" as="geometry"/>
        </mxCell>
        <mxCell id="kGWHChFnNLOmyEC3T0Xx-149" value="" style="shape=partialRectangle;top=0;left=0;bottom=0;fillColor=none;align=left;verticalAlign=top;spacingLeft=4;spacingRight=4;overflow=hidden;rotatable=0;points=[];portConstraint=eastwest;part=1;fontSize=12;" parent="kGWHChFnNLOmyEC3T0Xx-148" vertex="1" connectable="0">
          <mxGeometry width="30" height="26" as="geometry"/>
        </mxCell>
        <mxCell id="fyGPEh1QH60FLGqY0S4b-88" value="Parola" style="shape=partialRectangle;top=0;left=0;right=0;bottom=0;align=left;verticalAlign=top;fillColor=none;spacingLeft=34;spacingRight=4;overflow=hidden;rotatable=0;points=[[0,0.5],[1,0.5]];portConstraint=eastwest;dropTarget=0;fontSize=12;" parent="fyGPEh1QH60FLGqY0S4b-85" vertex="1">
          <mxGeometry y="82" width="160" height="26" as="geometry"/>
        </mxCell>
        <mxCell id="fyGPEh1QH60FLGqY0S4b-89" value="" style="shape=partialRectangle;top=0;left=0;bottom=0;fillColor=none;align=left;verticalAlign=top;spacingLeft=4;spacingRight=4;overflow=hidden;rotatable=0;points=[];portConstraint=eastwest;part=1;fontSize=12;" parent="fyGPEh1QH60FLGqY0S4b-88" vertex="1" connectable="0">
          <mxGeometry width="30" height="26" as="geometry"/>
        </mxCell>
        <mxCell id="fyGPEh1QH60FLGqY0S4b-90" value="Punti" style="shape=partialRectangle;top=0;left=0;right=0;bottom=0;align=left;verticalAlign=top;fillColor=none;spacingLeft=34;spacingRight=4;overflow=hidden;rotatable=0;points=[[0,0.5],[1,0.5]];portConstraint=eastwest;dropTarget=0;fontSize=12;" parent="fyGPEh1QH60FLGqY0S4b-85" vertex="1">
          <mxGeometry y="108" width="160" height="26" as="geometry"/>
        </mxCell>
        <mxCell id="fyGPEh1QH60FLGqY0S4b-91" value="" style="shape=partialRectangle;top=0;left=0;bottom=0;fillColor=none;align=left;verticalAlign=top;spacingLeft=4;spacingRight=4;overflow=hidden;rotatable=0;points=[];portConstraint=eastwest;part=1;fontSize=12;" parent="fyGPEh1QH60FLGqY0S4b-90" vertex="1" connectable="0">
          <mxGeometry width="30" height="26" as="geometry"/>
        </mxCell>
        <mxCell id="kGWHChFnNLOmyEC3T0Xx-60" value="Difficoltà" style="shape=partialRectangle;top=0;left=0;right=0;bottom=0;align=left;verticalAlign=top;fillColor=none;spacingLeft=34;spacingRight=4;overflow=hidden;rotatable=0;points=[[0,0.5],[1,0.5]];portConstraint=eastwest;dropTarget=0;fontSize=12;" parent="fyGPEh1QH60FLGqY0S4b-85" vertex="1">
          <mxGeometry y="134" width="160" height="26" as="geometry"/>
        </mxCell>
        <mxCell id="kGWHChFnNLOmyEC3T0Xx-61" value="" style="shape=partialRectangle;top=0;left=0;bottom=0;fillColor=none;align=left;verticalAlign=top;spacingLeft=4;spacingRight=4;overflow=hidden;rotatable=0;points=[];portConstraint=eastwest;part=1;fontSize=12;" parent="kGWHChFnNLOmyEC3T0Xx-60" vertex="1" connectable="0">
          <mxGeometry width="30" height="26" as="geometry"/>
        </mxCell>
        <mxCell id="fyGPEh1QH60FLGqY0S4b-94" value="" style="shape=partialRectangle;top=0;left=0;right=0;bottom=0;align=left;verticalAlign=top;fillColor=none;spacingLeft=34;spacingRight=4;overflow=hidden;rotatable=0;points=[[0,0.5],[1,0.5]];portConstraint=eastwest;dropTarget=0;fontSize=12;" parent="fyGPEh1QH60FLGqY0S4b-85" vertex="1">
          <mxGeometry y="160" width="160" height="10" as="geometry"/>
        </mxCell>
        <mxCell id="fyGPEh1QH60FLGqY0S4b-95" value="" style="shape=partialRectangle;top=0;left=0;bottom=0;fillColor=none;align=left;verticalAlign=top;spacingLeft=4;spacingRight=4;overflow=hidden;rotatable=0;points=[];portConstraint=eastwest;part=1;fontSize=12;" parent="fyGPEh1QH60FLGqY0S4b-94" vertex="1" connectable="0">
          <mxGeometry width="30" height="10" as="geometry"/>
        </mxCell>
        <mxCell id="fyGPEh1QH60FLGqY0S4b-109" value="Risposta" style="swimlane;fontStyle=0;childLayout=stackLayout;horizontal=1;startSize=26;fillColor=#e0e0e0;horizontalStack=0;resizeParent=1;resizeParentMax=0;resizeLast=0;collapsible=1;marginBottom=0;swimlaneFillColor=#ffffff;align=center;fontSize=14;" parent="1" vertex="1">
          <mxGeometry x="450" y="1300" width="170" height="92" as="geometry"/>
        </mxCell>
        <mxCell id="fyGPEh1QH60FLGqY0S4b-110" value="Risposta" style="shape=partialRectangle;top=0;left=0;right=0;bottom=1;align=left;verticalAlign=middle;fillColor=none;spacingLeft=34;spacingRight=4;overflow=hidden;rotatable=0;points=[[0,0.5],[1,0.5]];portConstraint=eastwest;dropTarget=0;fontStyle=5;fontSize=12;" parent="fyGPEh1QH60FLGqY0S4b-109" vertex="1">
          <mxGeometry y="26" width="170" height="30" as="geometry"/>
        </mxCell>
        <mxCell id="fyGPEh1QH60FLGqY0S4b-111" value="PK" style="shape=partialRectangle;top=0;left=0;bottom=0;fillColor=none;align=left;verticalAlign=middle;spacingLeft=4;spacingRight=4;overflow=hidden;rotatable=0;points=[];portConstraint=eastwest;part=1;fontSize=12;" parent="fyGPEh1QH60FLGqY0S4b-110" vertex="1" connectable="0">
          <mxGeometry width="30" height="30" as="geometry"/>
        </mxCell>
        <mxCell id="fyGPEh1QH60FLGqY0S4b-112" value="Punti" style="shape=partialRectangle;top=0;left=0;right=0;bottom=0;align=left;verticalAlign=top;fillColor=none;spacingLeft=34;spacingRight=4;overflow=hidden;rotatable=0;points=[[0,0.5],[1,0.5]];portConstraint=eastwest;dropTarget=0;fontSize=12;" parent="fyGPEh1QH60FLGqY0S4b-109" vertex="1">
          <mxGeometry y="56" width="170" height="26" as="geometry"/>
        </mxCell>
        <mxCell id="fyGPEh1QH60FLGqY0S4b-113" value="" style="shape=partialRectangle;top=0;left=0;bottom=0;fillColor=none;align=left;verticalAlign=top;spacingLeft=4;spacingRight=4;overflow=hidden;rotatable=0;points=[];portConstraint=eastwest;part=1;fontSize=12;" parent="fyGPEh1QH60FLGqY0S4b-112" vertex="1" connectable="0">
          <mxGeometry width="30" height="26" as="geometry"/>
        </mxCell>
        <mxCell id="fyGPEh1QH60FLGqY0S4b-118" value="" style="shape=partialRectangle;top=0;left=0;right=0;bottom=0;align=left;verticalAlign=top;fillColor=none;spacingLeft=34;spacingRight=4;overflow=hidden;rotatable=0;points=[[0,0.5],[1,0.5]];portConstraint=eastwest;dropTarget=0;fontSize=12;" parent="fyGPEh1QH60FLGqY0S4b-109" vertex="1">
          <mxGeometry y="82" width="170" height="10" as="geometry"/>
        </mxCell>
        <mxCell id="fyGPEh1QH60FLGqY0S4b-119" value="" style="shape=partialRectangle;top=0;left=0;bottom=0;fillColor=none;align=left;verticalAlign=top;spacingLeft=4;spacingRight=4;overflow=hidden;rotatable=0;points=[];portConstraint=eastwest;part=1;fontSize=12;" parent="fyGPEh1QH60FLGqY0S4b-118" vertex="1" connectable="0">
          <mxGeometry width="30" height="10" as="geometry"/>
        </mxCell>
        <mxCell id="fyGPEh1QH60FLGqY0S4b-120" value="Risposta" style="swimlane;fontStyle=0;childLayout=stackLayout;horizontal=1;startSize=26;fillColor=#e0e0e0;horizontalStack=0;resizeParent=1;resizeParentMax=0;resizeLast=0;collapsible=1;marginBottom=0;swimlaneFillColor=#ffffff;align=center;fontSize=14;" parent="1" vertex="1">
          <mxGeometry x="-120" y="1320" width="160" height="118" as="geometry"/>
        </mxCell>
        <mxCell id="fyGPEh1QH60FLGqY0S4b-121" value="Risposta" style="shape=partialRectangle;top=0;left=0;right=0;bottom=1;align=left;verticalAlign=middle;fillColor=none;spacingLeft=34;spacingRight=4;overflow=hidden;rotatable=0;points=[[0,0.5],[1,0.5]];portConstraint=eastwest;dropTarget=0;fontStyle=5;fontSize=12;" parent="fyGPEh1QH60FLGqY0S4b-120" vertex="1">
          <mxGeometry y="26" width="160" height="30" as="geometry"/>
        </mxCell>
        <mxCell id="fyGPEh1QH60FLGqY0S4b-122" value="PK" style="shape=partialRectangle;top=0;left=0;bottom=0;fillColor=none;align=left;verticalAlign=middle;spacingLeft=4;spacingRight=4;overflow=hidden;rotatable=0;points=[];portConstraint=eastwest;part=1;fontSize=12;" parent="fyGPEh1QH60FLGqY0S4b-121" vertex="1" connectable="0">
          <mxGeometry width="30" height="30" as="geometry"/>
        </mxCell>
        <mxCell id="fyGPEh1QH60FLGqY0S4b-125" value="Punti" style="shape=partialRectangle;top=0;left=0;right=0;bottom=0;align=left;verticalAlign=top;fillColor=none;spacingLeft=34;spacingRight=4;overflow=hidden;rotatable=0;points=[[0,0.5],[1,0.5]];portConstraint=eastwest;dropTarget=0;fontSize=12;" parent="fyGPEh1QH60FLGqY0S4b-120" vertex="1">
          <mxGeometry y="56" width="160" height="26" as="geometry"/>
        </mxCell>
        <mxCell id="fyGPEh1QH60FLGqY0S4b-126" value="" style="shape=partialRectangle;top=0;left=0;bottom=0;fillColor=none;align=left;verticalAlign=top;spacingLeft=4;spacingRight=4;overflow=hidden;rotatable=0;points=[];portConstraint=eastwest;part=1;fontSize=12;" parent="fyGPEh1QH60FLGqY0S4b-125" vertex="1" connectable="0">
          <mxGeometry width="30" height="26" as="geometry"/>
        </mxCell>
        <mxCell id="JKyJmAXLsVFuIjxXHFtV-64" value="Flag" style="shape=partialRectangle;top=0;left=0;right=0;bottom=0;align=left;verticalAlign=top;fillColor=none;spacingLeft=34;spacingRight=4;overflow=hidden;rotatable=0;points=[[0,0.5],[1,0.5]];portConstraint=eastwest;dropTarget=0;fontSize=12;" parent="fyGPEh1QH60FLGqY0S4b-120" vertex="1">
          <mxGeometry y="82" width="160" height="26" as="geometry"/>
        </mxCell>
        <mxCell id="JKyJmAXLsVFuIjxXHFtV-65" value="" style="shape=partialRectangle;top=0;left=0;bottom=0;fillColor=none;align=left;verticalAlign=top;spacingLeft=4;spacingRight=4;overflow=hidden;rotatable=0;points=[];portConstraint=eastwest;part=1;fontSize=12;" parent="JKyJmAXLsVFuIjxXHFtV-64" vertex="1" connectable="0">
          <mxGeometry width="30" height="26" as="geometry"/>
        </mxCell>
        <mxCell id="fyGPEh1QH60FLGqY0S4b-129" value="" style="shape=partialRectangle;top=0;left=0;right=0;bottom=0;align=left;verticalAlign=top;fillColor=none;spacingLeft=34;spacingRight=4;overflow=hidden;rotatable=0;points=[[0,0.5],[1,0.5]];portConstraint=eastwest;dropTarget=0;fontSize=12;" parent="fyGPEh1QH60FLGqY0S4b-120" vertex="1">
          <mxGeometry y="108" width="160" height="10" as="geometry"/>
        </mxCell>
        <mxCell id="fyGPEh1QH60FLGqY0S4b-130" value="" style="shape=partialRectangle;top=0;left=0;bottom=0;fillColor=none;align=left;verticalAlign=top;spacingLeft=4;spacingRight=4;overflow=hidden;rotatable=0;points=[];portConstraint=eastwest;part=1;fontSize=12;" parent="fyGPEh1QH60FLGqY0S4b-129" vertex="1" connectable="0">
          <mxGeometry width="30" height="10" as="geometry"/>
        </mxCell>
        <mxCell id="fyGPEh1QH60FLGqY0S4b-131" value="DomandaPrep" style="swimlane;fontStyle=0;childLayout=stackLayout;horizontal=1;startSize=26;fillColor=#e0e0e0;horizontalStack=0;resizeParent=1;resizeParentMax=0;resizeLast=0;collapsible=1;marginBottom=0;swimlaneFillColor=#ffffff;align=center;fontSize=14;" parent="1" vertex="1">
          <mxGeometry x="-120" y="1024" width="160" height="160" as="geometry"/>
        </mxCell>
        <mxCell id="fyGPEh1QH60FLGqY0S4b-132" value="idDomandaPrep" style="shape=partialRectangle;top=0;left=0;right=0;bottom=1;align=left;verticalAlign=middle;fillColor=none;spacingLeft=34;spacingRight=4;overflow=hidden;rotatable=0;points=[[0,0.5],[1,0.5]];portConstraint=eastwest;dropTarget=0;fontStyle=5;fontSize=12;" parent="fyGPEh1QH60FLGqY0S4b-131" vertex="1">
          <mxGeometry y="26" width="160" height="30" as="geometry"/>
        </mxCell>
        <mxCell id="fyGPEh1QH60FLGqY0S4b-133" value="PK" style="shape=partialRectangle;top=0;left=0;bottom=0;fillColor=none;align=left;verticalAlign=middle;spacingLeft=4;spacingRight=4;overflow=hidden;rotatable=0;points=[];portConstraint=eastwest;part=1;fontSize=12;" parent="fyGPEh1QH60FLGqY0S4b-132" vertex="1" connectable="0">
          <mxGeometry width="30" height="30" as="geometry"/>
        </mxCell>
        <mxCell id="fyGPEh1QH60FLGqY0S4b-179" value="Punti" style="shape=partialRectangle;top=0;left=0;right=0;bottom=0;align=left;verticalAlign=top;fillColor=none;spacingLeft=34;spacingRight=4;overflow=hidden;rotatable=0;points=[[0,0.5],[1,0.5]];portConstraint=eastwest;dropTarget=0;fontSize=12;startSize=26;" parent="fyGPEh1QH60FLGqY0S4b-131" vertex="1">
          <mxGeometry y="56" width="160" height="26" as="geometry"/>
        </mxCell>
        <mxCell id="fyGPEh1QH60FLGqY0S4b-180" value="" style="shape=partialRectangle;top=0;left=0;bottom=0;fillColor=none;align=left;verticalAlign=top;spacingLeft=4;spacingRight=4;overflow=hidden;rotatable=0;points=[];portConstraint=eastwest;part=1;fontSize=12;" parent="fyGPEh1QH60FLGqY0S4b-179" vertex="1" connectable="0">
          <mxGeometry width="30" height="26" as="geometry"/>
        </mxCell>
        <mxCell id="kGWHChFnNLOmyEC3T0Xx-144" value="Versione" style="shape=partialRectangle;top=0;left=0;right=0;bottom=0;align=left;verticalAlign=top;fillColor=none;spacingLeft=34;spacingRight=4;overflow=hidden;rotatable=0;points=[[0,0.5],[1,0.5]];portConstraint=eastwest;dropTarget=0;fontSize=12;" parent="fyGPEh1QH60FLGqY0S4b-131" vertex="1">
          <mxGeometry y="82" width="160" height="26" as="geometry"/>
        </mxCell>
        <mxCell id="kGWHChFnNLOmyEC3T0Xx-145" value="" style="shape=partialRectangle;top=0;left=0;bottom=0;fillColor=none;align=left;verticalAlign=top;spacingLeft=4;spacingRight=4;overflow=hidden;rotatable=0;points=[];portConstraint=eastwest;part=1;fontSize=12;" parent="kGWHChFnNLOmyEC3T0Xx-144" vertex="1" connectable="0">
          <mxGeometry width="30" height="26" as="geometry"/>
        </mxCell>
        <mxCell id="fyGPEh1QH60FLGqY0S4b-134" value="Testo" style="shape=partialRectangle;top=0;left=0;right=0;bottom=0;align=left;verticalAlign=top;fillColor=none;spacingLeft=34;spacingRight=4;overflow=hidden;rotatable=0;points=[[0,0.5],[1,0.5]];portConstraint=eastwest;dropTarget=0;fontSize=12;" parent="fyGPEh1QH60FLGqY0S4b-131" vertex="1">
          <mxGeometry y="108" width="160" height="26" as="geometry"/>
        </mxCell>
        <mxCell id="fyGPEh1QH60FLGqY0S4b-135" value="" style="shape=partialRectangle;top=0;left=0;bottom=0;fillColor=none;align=left;verticalAlign=top;spacingLeft=4;spacingRight=4;overflow=hidden;rotatable=0;points=[];portConstraint=eastwest;part=1;fontSize=12;" parent="fyGPEh1QH60FLGqY0S4b-134" vertex="1" connectable="0">
          <mxGeometry width="30" height="26" as="geometry"/>
        </mxCell>
        <mxCell id="kGWHChFnNLOmyEC3T0Xx-56" value="Difficoltà" style="shape=partialRectangle;top=0;left=0;right=0;bottom=0;align=left;verticalAlign=top;fillColor=none;spacingLeft=34;spacingRight=4;overflow=hidden;rotatable=0;points=[[0,0.5],[1,0.5]];portConstraint=eastwest;dropTarget=0;fontSize=12;" parent="fyGPEh1QH60FLGqY0S4b-131" vertex="1">
          <mxGeometry y="134" width="160" height="26" as="geometry"/>
        </mxCell>
        <mxCell id="kGWHChFnNLOmyEC3T0Xx-57" value="" style="shape=partialRectangle;top=0;left=0;bottom=0;fillColor=none;align=left;verticalAlign=top;spacingLeft=4;spacingRight=4;overflow=hidden;rotatable=0;points=[];portConstraint=eastwest;part=1;fontSize=12;" parent="kGWHChFnNLOmyEC3T0Xx-56" vertex="1" connectable="0">
          <mxGeometry width="30" height="26" as="geometry"/>
        </mxCell>
        <mxCell id="fyGPEh1QH60FLGqY0S4b-153" value="Risposta" style="swimlane;fontStyle=0;childLayout=stackLayout;horizontal=1;startSize=26;fillColor=#e0e0e0;horizontalStack=0;resizeParent=1;resizeParentMax=0;resizeLast=0;collapsible=1;marginBottom=0;swimlaneFillColor=#ffffff;align=center;fontSize=14;" parent="1" vertex="1">
          <mxGeometry x="-380" y="1320" width="160" height="118" as="geometry"/>
        </mxCell>
        <mxCell id="fyGPEh1QH60FLGqY0S4b-154" value="Risposta" style="shape=partialRectangle;top=0;left=0;right=0;bottom=1;align=left;verticalAlign=middle;fillColor=none;spacingLeft=34;spacingRight=4;overflow=hidden;rotatable=0;points=[[0,0.5],[1,0.5]];portConstraint=eastwest;dropTarget=0;fontStyle=5;fontSize=12;" parent="fyGPEh1QH60FLGqY0S4b-153" vertex="1">
          <mxGeometry y="26" width="160" height="30" as="geometry"/>
        </mxCell>
        <mxCell id="fyGPEh1QH60FLGqY0S4b-155" value="PK" style="shape=partialRectangle;top=0;left=0;bottom=0;fillColor=none;align=left;verticalAlign=middle;spacingLeft=4;spacingRight=4;overflow=hidden;rotatable=0;points=[];portConstraint=eastwest;part=1;fontSize=12;" parent="fyGPEh1QH60FLGqY0S4b-154" vertex="1" connectable="0">
          <mxGeometry width="30" height="30" as="geometry"/>
        </mxCell>
        <mxCell id="fyGPEh1QH60FLGqY0S4b-156" value="Punti" style="shape=partialRectangle;top=0;left=0;right=0;bottom=0;align=left;verticalAlign=top;fillColor=none;spacingLeft=34;spacingRight=4;overflow=hidden;rotatable=0;points=[[0,0.5],[1,0.5]];portConstraint=eastwest;dropTarget=0;fontSize=12;" parent="fyGPEh1QH60FLGqY0S4b-153" vertex="1">
          <mxGeometry y="56" width="160" height="26" as="geometry"/>
        </mxCell>
        <mxCell id="fyGPEh1QH60FLGqY0S4b-157" value="" style="shape=partialRectangle;top=0;left=0;bottom=0;fillColor=none;align=left;verticalAlign=top;spacingLeft=4;spacingRight=4;overflow=hidden;rotatable=0;points=[];portConstraint=eastwest;part=1;fontSize=12;" parent="fyGPEh1QH60FLGqY0S4b-156" vertex="1" connectable="0">
          <mxGeometry width="30" height="26" as="geometry"/>
        </mxCell>
        <mxCell id="fyGPEh1QH60FLGqY0S4b-168" value="Flag" style="shape=partialRectangle;top=0;left=0;right=0;bottom=0;align=left;verticalAlign=top;fillColor=none;spacingLeft=34;spacingRight=4;overflow=hidden;rotatable=0;points=[[0,0.5],[1,0.5]];portConstraint=eastwest;dropTarget=0;fontSize=12;" parent="fyGPEh1QH60FLGqY0S4b-153" vertex="1">
          <mxGeometry y="82" width="160" height="26" as="geometry"/>
        </mxCell>
        <mxCell id="fyGPEh1QH60FLGqY0S4b-169" value="" style="shape=partialRectangle;top=0;left=0;bottom=0;fillColor=none;align=left;verticalAlign=top;spacingLeft=4;spacingRight=4;overflow=hidden;rotatable=0;points=[];portConstraint=eastwest;part=1;fontSize=12;" parent="fyGPEh1QH60FLGqY0S4b-168" vertex="1" connectable="0">
          <mxGeometry width="30" height="26" as="geometry"/>
        </mxCell>
        <mxCell id="fyGPEh1QH60FLGqY0S4b-162" value="" style="shape=partialRectangle;top=0;left=0;right=0;bottom=0;align=left;verticalAlign=top;fillColor=none;spacingLeft=34;spacingRight=4;overflow=hidden;rotatable=0;points=[[0,0.5],[1,0.5]];portConstraint=eastwest;dropTarget=0;fontSize=12;" parent="fyGPEh1QH60FLGqY0S4b-153" vertex="1">
          <mxGeometry y="108" width="160" height="10" as="geometry"/>
        </mxCell>
        <mxCell id="fyGPEh1QH60FLGqY0S4b-163" value="" style="shape=partialRectangle;top=0;left=0;bottom=0;fillColor=none;align=left;verticalAlign=top;spacingLeft=4;spacingRight=4;overflow=hidden;rotatable=0;points=[];portConstraint=eastwest;part=1;fontSize=12;" parent="fyGPEh1QH60FLGqY0S4b-162" vertex="1" connectable="0">
          <mxGeometry width="30" height="10" as="geometry"/>
        </mxCell>
        <mxCell id="fyGPEh1QH60FLGqY0S4b-165" value="DomandaAgg" style="swimlane;fontStyle=0;childLayout=stackLayout;horizontal=1;startSize=26;fillColor=#e0e0e0;horizontalStack=0;resizeParent=1;resizeParentMax=0;resizeLast=0;collapsible=1;marginBottom=0;swimlaneFillColor=#ffffff;align=center;fontSize=14;" parent="1" vertex="1">
          <mxGeometry x="-380" y="1014" width="160" height="196" as="geometry"/>
        </mxCell>
        <mxCell id="fyGPEh1QH60FLGqY0S4b-166" value="idDomandaA" style="shape=partialRectangle;top=0;left=0;right=0;bottom=1;align=left;verticalAlign=middle;fillColor=none;spacingLeft=34;spacingRight=4;overflow=hidden;rotatable=0;points=[[0,0.5],[1,0.5]];portConstraint=eastwest;dropTarget=0;fontStyle=5;fontSize=12;" parent="fyGPEh1QH60FLGqY0S4b-165" vertex="1">
          <mxGeometry y="26" width="160" height="30" as="geometry"/>
        </mxCell>
        <mxCell id="fyGPEh1QH60FLGqY0S4b-167" value="PK" style="shape=partialRectangle;top=0;left=0;bottom=0;fillColor=none;align=left;verticalAlign=middle;spacingLeft=4;spacingRight=4;overflow=hidden;rotatable=0;points=[];portConstraint=eastwest;part=1;fontSize=12;" parent="fyGPEh1QH60FLGqY0S4b-166" vertex="1" connectable="0">
          <mxGeometry width="30" height="30" as="geometry"/>
        </mxCell>
        <mxCell id="fyGPEh1QH60FLGqY0S4b-170" value="Immagine" style="shape=partialRectangle;top=0;left=0;right=0;bottom=0;align=left;verticalAlign=top;fillColor=none;spacingLeft=34;spacingRight=4;overflow=hidden;rotatable=0;points=[[0,0.5],[1,0.5]];portConstraint=eastwest;dropTarget=0;fontSize=12;" parent="fyGPEh1QH60FLGqY0S4b-165" vertex="1">
          <mxGeometry y="56" width="160" height="26" as="geometry"/>
        </mxCell>
        <mxCell id="fyGPEh1QH60FLGqY0S4b-171" value="" style="shape=partialRectangle;top=0;left=0;bottom=0;fillColor=none;align=left;verticalAlign=top;spacingLeft=4;spacingRight=4;overflow=hidden;rotatable=0;points=[];portConstraint=eastwest;part=1;fontSize=12;" parent="fyGPEh1QH60FLGqY0S4b-170" vertex="1" connectable="0">
          <mxGeometry width="30" height="26" as="geometry"/>
        </mxCell>
        <mxCell id="fyGPEh1QH60FLGqY0S4b-205" value="Punti" style="shape=partialRectangle;top=0;left=0;right=0;bottom=0;align=left;verticalAlign=top;fillColor=none;spacingLeft=34;spacingRight=4;overflow=hidden;rotatable=0;points=[[0,0.5],[1,0.5]];portConstraint=eastwest;dropTarget=0;fontSize=12;startSize=26;" parent="fyGPEh1QH60FLGqY0S4b-165" vertex="1">
          <mxGeometry y="82" width="160" height="26" as="geometry"/>
        </mxCell>
        <mxCell id="fyGPEh1QH60FLGqY0S4b-206" value="" style="shape=partialRectangle;top=0;left=0;bottom=0;fillColor=none;align=left;verticalAlign=top;spacingLeft=4;spacingRight=4;overflow=hidden;rotatable=0;points=[];portConstraint=eastwest;part=1;fontSize=12;" parent="fyGPEh1QH60FLGqY0S4b-205" vertex="1" connectable="0">
          <mxGeometry width="30" height="26" as="geometry"/>
        </mxCell>
        <mxCell id="fyGPEh1QH60FLGqY0S4b-181" value="Testo" style="shape=partialRectangle;top=0;left=0;right=0;bottom=0;align=left;verticalAlign=top;fillColor=none;spacingLeft=34;spacingRight=4;overflow=hidden;rotatable=0;points=[[0,0.5],[1,0.5]];portConstraint=eastwest;dropTarget=0;fontSize=12;startSize=26;" parent="fyGPEh1QH60FLGqY0S4b-165" vertex="1">
          <mxGeometry y="108" width="160" height="26" as="geometry"/>
        </mxCell>
        <mxCell id="fyGPEh1QH60FLGqY0S4b-182" value="" style="shape=partialRectangle;top=0;left=0;bottom=0;fillColor=none;align=left;verticalAlign=top;spacingLeft=4;spacingRight=4;overflow=hidden;rotatable=0;points=[];portConstraint=eastwest;part=1;fontSize=12;" parent="fyGPEh1QH60FLGqY0S4b-181" vertex="1" connectable="0">
          <mxGeometry width="30" height="26" as="geometry"/>
        </mxCell>
        <mxCell id="kGWHChFnNLOmyEC3T0Xx-54" value="Difficoltà" style="shape=partialRectangle;top=0;left=0;right=0;bottom=0;align=left;verticalAlign=top;fillColor=none;spacingLeft=34;spacingRight=4;overflow=hidden;rotatable=0;points=[[0,0.5],[1,0.5]];portConstraint=eastwest;dropTarget=0;fontSize=12;" parent="fyGPEh1QH60FLGqY0S4b-165" vertex="1">
          <mxGeometry y="134" width="160" height="26" as="geometry"/>
        </mxCell>
        <mxCell id="kGWHChFnNLOmyEC3T0Xx-55" value="" style="shape=partialRectangle;top=0;left=0;bottom=0;fillColor=none;align=left;verticalAlign=top;spacingLeft=4;spacingRight=4;overflow=hidden;rotatable=0;points=[];portConstraint=eastwest;part=1;fontSize=12;" parent="kGWHChFnNLOmyEC3T0Xx-54" vertex="1" connectable="0">
          <mxGeometry width="30" height="26" as="geometry"/>
        </mxCell>
        <mxCell id="kGWHChFnNLOmyEC3T0Xx-142" value="Versione" style="shape=partialRectangle;top=0;left=0;right=0;bottom=0;align=left;verticalAlign=top;fillColor=none;spacingLeft=34;spacingRight=4;overflow=hidden;rotatable=0;points=[[0,0.5],[1,0.5]];portConstraint=eastwest;dropTarget=0;fontSize=12;" parent="fyGPEh1QH60FLGqY0S4b-165" vertex="1">
          <mxGeometry y="160" width="160" height="26" as="geometry"/>
        </mxCell>
        <mxCell id="kGWHChFnNLOmyEC3T0Xx-143" value="" style="shape=partialRectangle;top=0;left=0;bottom=0;fillColor=none;align=left;verticalAlign=top;spacingLeft=4;spacingRight=4;overflow=hidden;rotatable=0;points=[];portConstraint=eastwest;part=1;fontSize=12;" parent="kGWHChFnNLOmyEC3T0Xx-142" vertex="1" connectable="0">
          <mxGeometry width="30" height="26" as="geometry"/>
        </mxCell>
        <mxCell id="fyGPEh1QH60FLGqY0S4b-174" value="" style="shape=partialRectangle;top=0;left=0;right=0;bottom=0;align=left;verticalAlign=top;fillColor=none;spacingLeft=34;spacingRight=4;overflow=hidden;rotatable=0;points=[[0,0.5],[1,0.5]];portConstraint=eastwest;dropTarget=0;fontSize=12;" parent="fyGPEh1QH60FLGqY0S4b-165" vertex="1">
          <mxGeometry y="186" width="160" height="10" as="geometry"/>
        </mxCell>
        <mxCell id="fyGPEh1QH60FLGqY0S4b-175" value="" style="shape=partialRectangle;top=0;left=0;bottom=0;fillColor=none;align=left;verticalAlign=top;spacingLeft=4;spacingRight=4;overflow=hidden;rotatable=0;points=[];portConstraint=eastwest;part=1;fontSize=12;" parent="fyGPEh1QH60FLGqY0S4b-174" vertex="1" connectable="0">
          <mxGeometry width="30" height="10" as="geometry"/>
        </mxCell>
        <mxCell id="fyGPEh1QH60FLGqY0S4b-183" value="DomandaN" style="swimlane;fontStyle=0;childLayout=stackLayout;horizontal=1;startSize=26;fillColor=#e0e0e0;horizontalStack=0;resizeParent=1;resizeParentMax=0;resizeLast=0;collapsible=1;marginBottom=0;swimlaneFillColor=#ffffff;align=center;fontSize=14;" parent="1" vertex="1">
          <mxGeometry x="760" y="1014" width="160" height="170" as="geometry"/>
        </mxCell>
        <mxCell id="fyGPEh1QH60FLGqY0S4b-184" value="idDomandaN" style="shape=partialRectangle;top=0;left=0;right=0;bottom=1;align=left;verticalAlign=middle;fillColor=none;spacingLeft=34;spacingRight=4;overflow=hidden;rotatable=0;points=[[0,0.5],[1,0.5]];portConstraint=eastwest;dropTarget=0;fontStyle=5;fontSize=12;" parent="fyGPEh1QH60FLGqY0S4b-183" vertex="1">
          <mxGeometry y="26" width="160" height="30" as="geometry"/>
        </mxCell>
        <mxCell id="fyGPEh1QH60FLGqY0S4b-185" value="PK" style="shape=partialRectangle;top=0;left=0;bottom=0;fillColor=none;align=left;verticalAlign=middle;spacingLeft=4;spacingRight=4;overflow=hidden;rotatable=0;points=[];portConstraint=eastwest;part=1;fontSize=12;" parent="fyGPEh1QH60FLGqY0S4b-184" vertex="1" connectable="0">
          <mxGeometry width="30" height="30" as="geometry"/>
        </mxCell>
        <mxCell id="fyGPEh1QH60FLGqY0S4b-186" value="Indizio" style="shape=partialRectangle;top=0;left=0;right=0;bottom=0;align=left;verticalAlign=top;fillColor=none;spacingLeft=34;spacingRight=4;overflow=hidden;rotatable=0;points=[[0,0.5],[1,0.5]];portConstraint=eastwest;dropTarget=0;fontSize=12;" parent="fyGPEh1QH60FLGqY0S4b-183" vertex="1">
          <mxGeometry y="56" width="160" height="26" as="geometry"/>
        </mxCell>
        <mxCell id="fyGPEh1QH60FLGqY0S4b-187" value="" style="shape=partialRectangle;top=0;left=0;bottom=0;fillColor=none;align=left;verticalAlign=top;spacingLeft=4;spacingRight=4;overflow=hidden;rotatable=0;points=[];portConstraint=eastwest;part=1;fontSize=12;" parent="fyGPEh1QH60FLGqY0S4b-186" vertex="1" connectable="0">
          <mxGeometry width="30" height="26" as="geometry"/>
        </mxCell>
        <mxCell id="kGWHChFnNLOmyEC3T0Xx-150" value="Versione" style="shape=partialRectangle;top=0;left=0;right=0;bottom=0;align=left;verticalAlign=top;fillColor=none;spacingLeft=34;spacingRight=4;overflow=hidden;rotatable=0;points=[[0,0.5],[1,0.5]];portConstraint=eastwest;dropTarget=0;fontSize=12;" parent="fyGPEh1QH60FLGqY0S4b-183" vertex="1">
          <mxGeometry y="82" width="160" height="26" as="geometry"/>
        </mxCell>
        <mxCell id="kGWHChFnNLOmyEC3T0Xx-151" value="" style="shape=partialRectangle;top=0;left=0;bottom=0;fillColor=none;align=left;verticalAlign=top;spacingLeft=4;spacingRight=4;overflow=hidden;rotatable=0;points=[];portConstraint=eastwest;part=1;fontSize=12;" parent="kGWHChFnNLOmyEC3T0Xx-150" vertex="1" connectable="0">
          <mxGeometry width="30" height="26" as="geometry"/>
        </mxCell>
        <mxCell id="fyGPEh1QH60FLGqY0S4b-188" value="Punti" style="shape=partialRectangle;top=0;left=0;right=0;bottom=0;align=left;verticalAlign=top;fillColor=none;spacingLeft=34;spacingRight=4;overflow=hidden;rotatable=0;points=[[0,0.5],[1,0.5]];portConstraint=eastwest;dropTarget=0;fontSize=12;" parent="fyGPEh1QH60FLGqY0S4b-183" vertex="1">
          <mxGeometry y="108" width="160" height="26" as="geometry"/>
        </mxCell>
        <mxCell id="fyGPEh1QH60FLGqY0S4b-189" value="" style="shape=partialRectangle;top=0;left=0;bottom=0;fillColor=none;align=left;verticalAlign=top;spacingLeft=4;spacingRight=4;overflow=hidden;rotatable=0;points=[];portConstraint=eastwest;part=1;fontSize=12;" parent="fyGPEh1QH60FLGqY0S4b-188" vertex="1" connectable="0">
          <mxGeometry width="30" height="26" as="geometry"/>
        </mxCell>
        <mxCell id="kGWHChFnNLOmyEC3T0Xx-62" value="Difficoltà" style="shape=partialRectangle;top=0;left=0;right=0;bottom=0;align=left;verticalAlign=top;fillColor=none;spacingLeft=34;spacingRight=4;overflow=hidden;rotatable=0;points=[[0,0.5],[1,0.5]];portConstraint=eastwest;dropTarget=0;fontSize=12;" parent="fyGPEh1QH60FLGqY0S4b-183" vertex="1">
          <mxGeometry y="134" width="160" height="26" as="geometry"/>
        </mxCell>
        <mxCell id="kGWHChFnNLOmyEC3T0Xx-63" value="" style="shape=partialRectangle;top=0;left=0;bottom=0;fillColor=none;align=left;verticalAlign=top;spacingLeft=4;spacingRight=4;overflow=hidden;rotatable=0;points=[];portConstraint=eastwest;part=1;fontSize=12;" parent="kGWHChFnNLOmyEC3T0Xx-62" vertex="1" connectable="0">
          <mxGeometry width="30" height="26" as="geometry"/>
        </mxCell>
        <mxCell id="fyGPEh1QH60FLGqY0S4b-192" value="" style="shape=partialRectangle;top=0;left=0;right=0;bottom=0;align=left;verticalAlign=top;fillColor=none;spacingLeft=34;spacingRight=4;overflow=hidden;rotatable=0;points=[[0,0.5],[1,0.5]];portConstraint=eastwest;dropTarget=0;fontSize=12;" parent="fyGPEh1QH60FLGqY0S4b-183" vertex="1">
          <mxGeometry y="160" width="160" height="10" as="geometry"/>
        </mxCell>
        <mxCell id="fyGPEh1QH60FLGqY0S4b-193" value="" style="shape=partialRectangle;top=0;left=0;bottom=0;fillColor=none;align=left;verticalAlign=top;spacingLeft=4;spacingRight=4;overflow=hidden;rotatable=0;points=[];portConstraint=eastwest;part=1;fontSize=12;" parent="fyGPEh1QH60FLGqY0S4b-192" vertex="1" connectable="0">
          <mxGeometry width="30" height="10" as="geometry"/>
        </mxCell>
        <mxCell id="fyGPEh1QH60FLGqY0S4b-194" value="Risposta" style="swimlane;fontStyle=0;childLayout=stackLayout;horizontal=1;startSize=26;fillColor=#e0e0e0;horizontalStack=0;resizeParent=1;resizeParentMax=0;resizeLast=0;collapsible=1;marginBottom=0;swimlaneFillColor=#ffffff;align=center;fontSize=14;" parent="1" vertex="1">
          <mxGeometry x="760" y="1299" width="160" height="108" as="geometry"/>
        </mxCell>
        <mxCell id="fyGPEh1QH60FLGqY0S4b-195" value="Risposta" style="shape=partialRectangle;top=0;left=0;right=0;bottom=1;align=left;verticalAlign=middle;fillColor=none;spacingLeft=34;spacingRight=4;overflow=hidden;rotatable=0;points=[[0,0.5],[1,0.5]];portConstraint=eastwest;dropTarget=0;fontStyle=5;fontSize=12;" parent="fyGPEh1QH60FLGqY0S4b-194" vertex="1">
          <mxGeometry y="26" width="160" height="46" as="geometry"/>
        </mxCell>
        <mxCell id="fyGPEh1QH60FLGqY0S4b-196" value="PK" style="shape=partialRectangle;top=0;left=0;bottom=0;fillColor=none;align=left;verticalAlign=middle;spacingLeft=4;spacingRight=4;overflow=hidden;rotatable=0;points=[];portConstraint=eastwest;part=1;fontSize=12;" parent="fyGPEh1QH60FLGqY0S4b-195" vertex="1" connectable="0">
          <mxGeometry width="30" height="46" as="geometry"/>
        </mxCell>
        <mxCell id="fyGPEh1QH60FLGqY0S4b-197" value="Punti" style="shape=partialRectangle;top=0;left=0;right=0;bottom=0;align=left;verticalAlign=top;fillColor=none;spacingLeft=34;spacingRight=4;overflow=hidden;rotatable=0;points=[[0,0.5],[1,0.5]];portConstraint=eastwest;dropTarget=0;fontSize=12;" parent="fyGPEh1QH60FLGqY0S4b-194" vertex="1">
          <mxGeometry y="72" width="160" height="26" as="geometry"/>
        </mxCell>
        <mxCell id="fyGPEh1QH60FLGqY0S4b-198" value="" style="shape=partialRectangle;top=0;left=0;bottom=0;fillColor=none;align=left;verticalAlign=top;spacingLeft=4;spacingRight=4;overflow=hidden;rotatable=0;points=[];portConstraint=eastwest;part=1;fontSize=12;" parent="fyGPEh1QH60FLGqY0S4b-197" vertex="1" connectable="0">
          <mxGeometry width="30" height="26" as="geometry"/>
        </mxCell>
        <mxCell id="fyGPEh1QH60FLGqY0S4b-203" value="" style="shape=partialRectangle;top=0;left=0;right=0;bottom=0;align=left;verticalAlign=top;fillColor=none;spacingLeft=34;spacingRight=4;overflow=hidden;rotatable=0;points=[[0,0.5],[1,0.5]];portConstraint=eastwest;dropTarget=0;fontSize=12;" parent="fyGPEh1QH60FLGqY0S4b-194" vertex="1">
          <mxGeometry y="98" width="160" height="10" as="geometry"/>
        </mxCell>
        <mxCell id="fyGPEh1QH60FLGqY0S4b-204" value="" style="shape=partialRectangle;top=0;left=0;bottom=0;fillColor=none;align=left;verticalAlign=top;spacingLeft=4;spacingRight=4;overflow=hidden;rotatable=0;points=[];portConstraint=eastwest;part=1;fontSize=12;" parent="fyGPEh1QH60FLGqY0S4b-203" vertex="1" connectable="0">
          <mxGeometry width="30" height="10" as="geometry"/>
        </mxCell>
        <mxCell id="fyGPEh1QH60FLGqY0S4b-207" value="[0,N]" style="text;html=1;align=center;verticalAlign=middle;resizable=0;points=[];autosize=1;fontSize=14;" parent="1" vertex="1">
          <mxGeometry x="-170" y="761.5" width="50" height="20" as="geometry"/>
        </mxCell>
        <mxCell id="fyGPEh1QH60FLGqY0S4b-208" value="[0,N]" style="text;html=1;align=center;verticalAlign=middle;resizable=0;points=[];autosize=1;fontSize=14;" parent="1" vertex="1">
          <mxGeometry x="219.99999999999997" y="761.5" width="50" height="20" as="geometry"/>
        </mxCell>
        <mxCell id="kGWHChFnNLOmyEC3T0Xx-3" style="edgeStyle=orthogonalEdgeStyle;rounded=0;orthogonalLoop=1;jettySize=auto;html=1;exitX=0.5;exitY=0;exitDx=0;exitDy=0;endArrow=none;endFill=0;" parent="1" source="fyGPEh1QH60FLGqY0S4b-213" target="fyGPEh1QH60FLGqY0S4b-165" edge="1">
          <mxGeometry relative="1" as="geometry"/>
        </mxCell>
        <mxCell id="kGWHChFnNLOmyEC3T0Xx-4" style="edgeStyle=orthogonalEdgeStyle;rounded=0;orthogonalLoop=1;jettySize=auto;html=1;exitX=0.5;exitY=1;exitDx=0;exitDy=0;endArrow=none;endFill=0;" parent="1" source="fyGPEh1QH60FLGqY0S4b-213" target="fyGPEh1QH60FLGqY0S4b-153" edge="1">
          <mxGeometry relative="1" as="geometry"/>
        </mxCell>
        <mxCell id="fyGPEh1QH60FLGqY0S4b-213" value="P1" style="shape=rhombus;perimeter=rhombusPerimeter;whiteSpace=wrap;html=1;align=center;startSize=26;fillColor=#e0e0e0;fontSize=14;" parent="1" vertex="1">
          <mxGeometry x="-360" y="1230" width="120" height="60" as="geometry"/>
        </mxCell>
        <mxCell id="fyGPEh1QH60FLGqY0S4b-214" value="[1,N]" style="text;html=1;align=center;verticalAlign=middle;resizable=0;points=[];autosize=1;fontSize=14;" parent="1" vertex="1">
          <mxGeometry x="-375" y="1210" width="50" height="20" as="geometry"/>
        </mxCell>
        <mxCell id="fyGPEh1QH60FLGqY0S4b-215" value="[1,1]" style="text;html=1;align=center;verticalAlign=middle;resizable=0;points=[];autosize=1;fontSize=14;" parent="1" vertex="1">
          <mxGeometry x="-370" y="1290" width="40" height="20" as="geometry"/>
        </mxCell>
        <mxCell id="kGWHChFnNLOmyEC3T0Xx-5" style="edgeStyle=orthogonalEdgeStyle;rounded=0;orthogonalLoop=1;jettySize=auto;html=1;exitX=0.5;exitY=0;exitDx=0;exitDy=0;endArrow=none;endFill=0;" parent="1" source="fyGPEh1QH60FLGqY0S4b-216" target="fyGPEh1QH60FLGqY0S4b-131" edge="1">
          <mxGeometry relative="1" as="geometry"/>
        </mxCell>
        <mxCell id="kGWHChFnNLOmyEC3T0Xx-6" style="edgeStyle=orthogonalEdgeStyle;rounded=0;orthogonalLoop=1;jettySize=auto;html=1;exitX=0.5;exitY=1;exitDx=0;exitDy=0;endArrow=none;endFill=0;" parent="1" source="fyGPEh1QH60FLGqY0S4b-216" target="fyGPEh1QH60FLGqY0S4b-120" edge="1">
          <mxGeometry relative="1" as="geometry"/>
        </mxCell>
        <mxCell id="fyGPEh1QH60FLGqY0S4b-216" value="P2" style="shape=rhombus;perimeter=rhombusPerimeter;whiteSpace=wrap;html=1;align=center;startSize=26;fillColor=#e0e0e0;fontSize=14;" parent="1" vertex="1">
          <mxGeometry x="-100" y="1230" width="120" height="60" as="geometry"/>
        </mxCell>
        <mxCell id="fyGPEh1QH60FLGqY0S4b-218" value="[1,1]" style="text;html=1;align=center;verticalAlign=middle;resizable=0;points=[];autosize=1;fontSize=14;" parent="1" vertex="1">
          <mxGeometry x="-120" y="1290" width="40" height="20" as="geometry"/>
        </mxCell>
        <mxCell id="fyGPEh1QH60FLGqY0S4b-219" value="[1,N]" style="text;html=1;align=center;verticalAlign=middle;resizable=0;points=[];autosize=1;fontSize=14;" parent="1" vertex="1">
          <mxGeometry x="-125" y="1184" width="50" height="20" as="geometry"/>
        </mxCell>
        <mxCell id="kGWHChFnNLOmyEC3T0Xx-8" style="edgeStyle=orthogonalEdgeStyle;rounded=0;orthogonalLoop=1;jettySize=auto;html=1;exitX=0.5;exitY=0;exitDx=0;exitDy=0;endArrow=none;endFill=0;" parent="1" source="fyGPEh1QH60FLGqY0S4b-220" target="fyGPEh1QH60FLGqY0S4b-63" edge="1">
          <mxGeometry relative="1" as="geometry"/>
        </mxCell>
        <mxCell id="kGWHChFnNLOmyEC3T0Xx-9" style="edgeStyle=orthogonalEdgeStyle;rounded=0;orthogonalLoop=1;jettySize=auto;html=1;exitX=0.5;exitY=1;exitDx=0;exitDy=0;entryX=0.5;entryY=0;entryDx=0;entryDy=0;endArrow=none;endFill=0;" parent="1" source="fyGPEh1QH60FLGqY0S4b-220" target="fyGPEh1QH60FLGqY0S4b-74" edge="1">
          <mxGeometry relative="1" as="geometry"/>
        </mxCell>
        <mxCell id="fyGPEh1QH60FLGqY0S4b-220" value="P3" style="shape=rhombus;perimeter=rhombusPerimeter;whiteSpace=wrap;html=1;align=center;startSize=26;fillColor=#e0e0e0;fontSize=14;" parent="1" vertex="1">
          <mxGeometry x="200" y="1240" width="120" height="60" as="geometry"/>
        </mxCell>
        <mxCell id="fyGPEh1QH60FLGqY0S4b-221" value="[1,1]" style="text;html=1;align=center;verticalAlign=middle;resizable=0;points=[];autosize=1;fontSize=14;" parent="1" vertex="1">
          <mxGeometry x="185" y="1290" width="40" height="20" as="geometry"/>
        </mxCell>
        <mxCell id="kGWHChFnNLOmyEC3T0Xx-10" style="edgeStyle=orthogonalEdgeStyle;rounded=0;orthogonalLoop=1;jettySize=auto;html=1;exitX=0.5;exitY=0;exitDx=0;exitDy=0;endArrow=none;endFill=0;" parent="1" source="fyGPEh1QH60FLGqY0S4b-223" target="fyGPEh1QH60FLGqY0S4b-85" edge="1">
          <mxGeometry relative="1" as="geometry"/>
        </mxCell>
        <mxCell id="kGWHChFnNLOmyEC3T0Xx-12" style="edgeStyle=orthogonalEdgeStyle;rounded=0;orthogonalLoop=1;jettySize=auto;html=1;exitX=0.5;exitY=1;exitDx=0;exitDy=0;endArrow=none;endFill=0;" parent="1" source="fyGPEh1QH60FLGqY0S4b-223" target="fyGPEh1QH60FLGqY0S4b-109" edge="1">
          <mxGeometry relative="1" as="geometry"/>
        </mxCell>
        <mxCell id="fyGPEh1QH60FLGqY0S4b-223" value="P4" style="shape=rhombus;perimeter=rhombusPerimeter;whiteSpace=wrap;html=1;align=center;startSize=26;fillColor=#e0e0e0;fontSize=14;" parent="1" vertex="1">
          <mxGeometry x="475" y="1210" width="120" height="60" as="geometry"/>
        </mxCell>
        <mxCell id="fyGPEh1QH60FLGqY0S4b-224" value="[1,1]" style="text;html=1;align=center;verticalAlign=middle;resizable=0;points=[];autosize=1;fontSize=14;" parent="1" vertex="1">
          <mxGeometry x="460" y="1270" width="40" height="20" as="geometry"/>
        </mxCell>
        <mxCell id="fyGPEh1QH60FLGqY0S4b-225" value="[1,1]" style="text;html=1;align=center;verticalAlign=middle;resizable=0;points=[];autosize=1;fontSize=14;" parent="1" vertex="1">
          <mxGeometry x="460" y="1190" width="40" height="20" as="geometry"/>
        </mxCell>
        <mxCell id="kGWHChFnNLOmyEC3T0Xx-13" style="edgeStyle=orthogonalEdgeStyle;rounded=0;orthogonalLoop=1;jettySize=auto;html=1;exitX=0.5;exitY=0;exitDx=0;exitDy=0;endArrow=none;endFill=0;" parent="1" source="fyGPEh1QH60FLGqY0S4b-226" target="fyGPEh1QH60FLGqY0S4b-183" edge="1">
          <mxGeometry relative="1" as="geometry"/>
        </mxCell>
        <mxCell id="kGWHChFnNLOmyEC3T0Xx-14" style="edgeStyle=orthogonalEdgeStyle;rounded=0;orthogonalLoop=1;jettySize=auto;html=1;exitX=0.5;exitY=1;exitDx=0;exitDy=0;entryX=0.5;entryY=0;entryDx=0;entryDy=0;endArrow=none;endFill=0;" parent="1" source="fyGPEh1QH60FLGqY0S4b-226" target="fyGPEh1QH60FLGqY0S4b-194" edge="1">
          <mxGeometry relative="1" as="geometry"/>
        </mxCell>
        <mxCell id="fyGPEh1QH60FLGqY0S4b-226" value="P5" style="shape=rhombus;perimeter=rhombusPerimeter;whiteSpace=wrap;html=1;align=center;startSize=26;fillColor=#e0e0e0;fontSize=14;" parent="1" vertex="1">
          <mxGeometry x="780" y="1204" width="120" height="60" as="geometry"/>
        </mxCell>
        <mxCell id="fyGPEh1QH60FLGqY0S4b-228" value="[1,1]" style="text;html=1;align=center;verticalAlign=middle;resizable=0;points=[];autosize=1;fontSize=14;" parent="1" vertex="1">
          <mxGeometry x="770" y="1270" width="40" height="20" as="geometry"/>
        </mxCell>
        <mxCell id="fyGPEh1QH60FLGqY0S4b-229" value="[1,1]" style="text;html=1;align=center;verticalAlign=middle;resizable=0;points=[];autosize=1;fontSize=14;" parent="1" vertex="1">
          <mxGeometry x="770" y="1190" width="40" height="20" as="geometry"/>
        </mxCell>
        <mxCell id="fyGPEh1QH60FLGqY0S4b-230" value="DamandaArt" style="swimlane;fontStyle=0;childLayout=stackLayout;horizontal=1;startSize=26;fillColor=#e0e0e0;horizontalStack=0;resizeParent=1;resizeParentMax=0;resizeLast=0;collapsible=1;marginBottom=0;swimlaneFillColor=#ffffff;align=center;fontSize=14;" parent="1" vertex="1">
          <mxGeometry x="1010" y="1014" width="160" height="170" as="geometry"/>
        </mxCell>
        <mxCell id="fyGPEh1QH60FLGqY0S4b-231" value="idDomandaArt" style="shape=partialRectangle;top=0;left=0;right=0;bottom=1;align=left;verticalAlign=middle;fillColor=none;spacingLeft=34;spacingRight=4;overflow=hidden;rotatable=0;points=[[0,0.5],[1,0.5]];portConstraint=eastwest;dropTarget=0;fontStyle=5;fontSize=12;" parent="fyGPEh1QH60FLGqY0S4b-230" vertex="1">
          <mxGeometry y="26" width="160" height="30" as="geometry"/>
        </mxCell>
        <mxCell id="fyGPEh1QH60FLGqY0S4b-232" value="PK" style="shape=partialRectangle;top=0;left=0;bottom=0;fillColor=none;align=left;verticalAlign=middle;spacingLeft=4;spacingRight=4;overflow=hidden;rotatable=0;points=[];portConstraint=eastwest;part=1;fontSize=12;" parent="fyGPEh1QH60FLGqY0S4b-231" vertex="1" connectable="0">
          <mxGeometry width="30" height="30" as="geometry"/>
        </mxCell>
        <mxCell id="fyGPEh1QH60FLGqY0S4b-233" value="Articolo" style="shape=partialRectangle;top=0;left=0;right=0;bottom=0;align=left;verticalAlign=top;fillColor=none;spacingLeft=34;spacingRight=4;overflow=hidden;rotatable=0;points=[[0,0.5],[1,0.5]];portConstraint=eastwest;dropTarget=0;fontSize=12;" parent="fyGPEh1QH60FLGqY0S4b-230" vertex="1">
          <mxGeometry y="56" width="160" height="26" as="geometry"/>
        </mxCell>
        <mxCell id="fyGPEh1QH60FLGqY0S4b-234" value="" style="shape=partialRectangle;top=0;left=0;bottom=0;fillColor=none;align=left;verticalAlign=top;spacingLeft=4;spacingRight=4;overflow=hidden;rotatable=0;points=[];portConstraint=eastwest;part=1;fontSize=12;" parent="fyGPEh1QH60FLGqY0S4b-233" vertex="1" connectable="0">
          <mxGeometry width="30" height="26" as="geometry"/>
        </mxCell>
        <mxCell id="kGWHChFnNLOmyEC3T0Xx-152" value="Versione" style="shape=partialRectangle;top=0;left=0;right=0;bottom=0;align=left;verticalAlign=top;fillColor=none;spacingLeft=34;spacingRight=4;overflow=hidden;rotatable=0;points=[[0,0.5],[1,0.5]];portConstraint=eastwest;dropTarget=0;fontSize=12;" parent="fyGPEh1QH60FLGqY0S4b-230" vertex="1">
          <mxGeometry y="82" width="160" height="26" as="geometry"/>
        </mxCell>
        <mxCell id="kGWHChFnNLOmyEC3T0Xx-153" value="" style="shape=partialRectangle;top=0;left=0;bottom=0;fillColor=none;align=left;verticalAlign=top;spacingLeft=4;spacingRight=4;overflow=hidden;rotatable=0;points=[];portConstraint=eastwest;part=1;fontSize=12;" parent="kGWHChFnNLOmyEC3T0Xx-152" vertex="1" connectable="0">
          <mxGeometry width="30" height="26" as="geometry"/>
        </mxCell>
        <mxCell id="fyGPEh1QH60FLGqY0S4b-235" value="Punti" style="shape=partialRectangle;top=0;left=0;right=0;bottom=0;align=left;verticalAlign=top;fillColor=none;spacingLeft=34;spacingRight=4;overflow=hidden;rotatable=0;points=[[0,0.5],[1,0.5]];portConstraint=eastwest;dropTarget=0;fontSize=12;" parent="fyGPEh1QH60FLGqY0S4b-230" vertex="1">
          <mxGeometry y="108" width="160" height="26" as="geometry"/>
        </mxCell>
        <mxCell id="fyGPEh1QH60FLGqY0S4b-236" value="" style="shape=partialRectangle;top=0;left=0;bottom=0;fillColor=none;align=left;verticalAlign=top;spacingLeft=4;spacingRight=4;overflow=hidden;rotatable=0;points=[];portConstraint=eastwest;part=1;fontSize=12;" parent="fyGPEh1QH60FLGqY0S4b-235" vertex="1" connectable="0">
          <mxGeometry width="30" height="26" as="geometry"/>
        </mxCell>
        <mxCell id="kGWHChFnNLOmyEC3T0Xx-64" value="Difficoltà" style="shape=partialRectangle;top=0;left=0;right=0;bottom=0;align=left;verticalAlign=top;fillColor=none;spacingLeft=34;spacingRight=4;overflow=hidden;rotatable=0;points=[[0,0.5],[1,0.5]];portConstraint=eastwest;dropTarget=0;fontSize=12;" parent="fyGPEh1QH60FLGqY0S4b-230" vertex="1">
          <mxGeometry y="134" width="160" height="26" as="geometry"/>
        </mxCell>
        <mxCell id="kGWHChFnNLOmyEC3T0Xx-65" value="" style="shape=partialRectangle;top=0;left=0;bottom=0;fillColor=none;align=left;verticalAlign=top;spacingLeft=4;spacingRight=4;overflow=hidden;rotatable=0;points=[];portConstraint=eastwest;part=1;fontSize=12;" parent="kGWHChFnNLOmyEC3T0Xx-64" vertex="1" connectable="0">
          <mxGeometry width="30" height="26" as="geometry"/>
        </mxCell>
        <mxCell id="fyGPEh1QH60FLGqY0S4b-237" value="" style="shape=partialRectangle;top=0;left=0;right=0;bottom=0;align=left;verticalAlign=top;fillColor=none;spacingLeft=34;spacingRight=4;overflow=hidden;rotatable=0;points=[[0,0.5],[1,0.5]];portConstraint=eastwest;dropTarget=0;fontSize=12;" parent="fyGPEh1QH60FLGqY0S4b-230" vertex="1">
          <mxGeometry y="160" width="160" height="10" as="geometry"/>
        </mxCell>
        <mxCell id="fyGPEh1QH60FLGqY0S4b-238" value="" style="shape=partialRectangle;top=0;left=0;bottom=0;fillColor=none;align=left;verticalAlign=top;spacingLeft=4;spacingRight=4;overflow=hidden;rotatable=0;points=[];portConstraint=eastwest;part=1;fontSize=12;" parent="fyGPEh1QH60FLGqY0S4b-237" vertex="1" connectable="0">
          <mxGeometry width="30" height="10" as="geometry"/>
        </mxCell>
        <mxCell id="kGWHChFnNLOmyEC3T0Xx-15" style="edgeStyle=orthogonalEdgeStyle;rounded=0;orthogonalLoop=1;jettySize=auto;html=1;exitX=0.5;exitY=0;exitDx=0;exitDy=0;endArrow=none;endFill=0;" parent="1" source="fyGPEh1QH60FLGqY0S4b-239" target="fyGPEh1QH60FLGqY0S4b-230" edge="1">
          <mxGeometry relative="1" as="geometry"/>
        </mxCell>
        <mxCell id="kGWHChFnNLOmyEC3T0Xx-16" style="edgeStyle=orthogonalEdgeStyle;rounded=0;orthogonalLoop=1;jettySize=auto;html=1;exitX=0.5;exitY=1;exitDx=0;exitDy=0;entryX=0.5;entryY=0;entryDx=0;entryDy=0;endArrow=none;endFill=0;" parent="1" source="fyGPEh1QH60FLGqY0S4b-239" target="fyGPEh1QH60FLGqY0S4b-240" edge="1">
          <mxGeometry relative="1" as="geometry"/>
        </mxCell>
        <mxCell id="fyGPEh1QH60FLGqY0S4b-239" value="P6" style="shape=rhombus;perimeter=rhombusPerimeter;whiteSpace=wrap;html=1;align=center;startSize=26;fillColor=#e0e0e0;fontSize=14;" parent="1" vertex="1">
          <mxGeometry x="1030" y="1210" width="120" height="60" as="geometry"/>
        </mxCell>
        <mxCell id="fyGPEh1QH60FLGqY0S4b-240" value="Risposta" style="swimlane;fontStyle=0;childLayout=stackLayout;horizontal=1;startSize=26;fillColor=#e0e0e0;horizontalStack=0;resizeParent=1;resizeParentMax=0;resizeLast=0;collapsible=1;marginBottom=0;swimlaneFillColor=#ffffff;align=center;fontSize=14;" parent="1" vertex="1">
          <mxGeometry x="1010" y="1299" width="160" height="108" as="geometry"/>
        </mxCell>
        <mxCell id="fyGPEh1QH60FLGqY0S4b-241" value="idScatola" style="shape=partialRectangle;top=0;left=0;right=0;bottom=1;align=left;verticalAlign=middle;fillColor=none;spacingLeft=34;spacingRight=4;overflow=hidden;rotatable=0;points=[[0,0.5],[1,0.5]];portConstraint=eastwest;dropTarget=0;fontStyle=5;fontSize=12;" parent="fyGPEh1QH60FLGqY0S4b-240" vertex="1">
          <mxGeometry y="26" width="160" height="46" as="geometry"/>
        </mxCell>
        <mxCell id="fyGPEh1QH60FLGqY0S4b-242" value="PK" style="shape=partialRectangle;top=0;left=0;bottom=0;fillColor=none;align=left;verticalAlign=middle;spacingLeft=4;spacingRight=4;overflow=hidden;rotatable=0;points=[];portConstraint=eastwest;part=1;fontSize=12;" parent="fyGPEh1QH60FLGqY0S4b-241" vertex="1" connectable="0">
          <mxGeometry width="30" height="46" as="geometry"/>
        </mxCell>
        <mxCell id="fyGPEh1QH60FLGqY0S4b-243" value="Punti" style="shape=partialRectangle;top=0;left=0;right=0;bottom=0;align=left;verticalAlign=top;fillColor=none;spacingLeft=34;spacingRight=4;overflow=hidden;rotatable=0;points=[[0,0.5],[1,0.5]];portConstraint=eastwest;dropTarget=0;fontSize=12;" parent="fyGPEh1QH60FLGqY0S4b-240" vertex="1">
          <mxGeometry y="72" width="160" height="26" as="geometry"/>
        </mxCell>
        <mxCell id="fyGPEh1QH60FLGqY0S4b-244" value="" style="shape=partialRectangle;top=0;left=0;bottom=0;fillColor=none;align=left;verticalAlign=top;spacingLeft=4;spacingRight=4;overflow=hidden;rotatable=0;points=[];portConstraint=eastwest;part=1;fontSize=12;" parent="fyGPEh1QH60FLGqY0S4b-243" vertex="1" connectable="0">
          <mxGeometry width="30" height="26" as="geometry"/>
        </mxCell>
        <mxCell id="fyGPEh1QH60FLGqY0S4b-245" value="" style="shape=partialRectangle;top=0;left=0;right=0;bottom=0;align=left;verticalAlign=top;fillColor=none;spacingLeft=34;spacingRight=4;overflow=hidden;rotatable=0;points=[[0,0.5],[1,0.5]];portConstraint=eastwest;dropTarget=0;fontSize=12;" parent="fyGPEh1QH60FLGqY0S4b-240" vertex="1">
          <mxGeometry y="98" width="160" height="10" as="geometry"/>
        </mxCell>
        <mxCell id="fyGPEh1QH60FLGqY0S4b-246" value="" style="shape=partialRectangle;top=0;left=0;bottom=0;fillColor=none;align=left;verticalAlign=top;spacingLeft=4;spacingRight=4;overflow=hidden;rotatable=0;points=[];portConstraint=eastwest;part=1;fontSize=12;" parent="fyGPEh1QH60FLGqY0S4b-245" vertex="1" connectable="0">
          <mxGeometry width="30" height="10" as="geometry"/>
        </mxCell>
        <mxCell id="kGWHChFnNLOmyEC3T0Xx-2" value="[1,1]" style="text;html=1;align=center;verticalAlign=middle;resizable=0;points=[];autosize=1;fontSize=14;" parent="1" vertex="1">
          <mxGeometry x="1015" y="1270" width="40" height="20" as="geometry"/>
        </mxCell>
        <mxCell id="kGWHChFnNLOmyEC3T0Xx-32" style="edgeStyle=orthogonalEdgeStyle;rounded=0;orthogonalLoop=1;jettySize=auto;html=1;exitX=0.5;exitY=0;exitDx=0;exitDy=0;startArrow=none;startFill=0;endArrow=none;endFill=0;" parent="1" source="kGWHChFnNLOmyEC3T0Xx-26" edge="1">
          <mxGeometry relative="1" as="geometry">
            <mxPoint x="349.2857142857147" y="812.0000000000002" as="targetPoint"/>
          </mxGeometry>
        </mxCell>
        <mxCell id="kGWHChFnNLOmyEC3T0Xx-40" style="edgeStyle=orthogonalEdgeStyle;rounded=0;orthogonalLoop=1;jettySize=auto;html=1;exitX=0.5;exitY=1;exitDx=0;exitDy=0;entryX=0.5;entryY=0;entryDx=0;entryDy=0;startArrow=none;startFill=0;endArrow=none;endFill=0;" parent="1" source="kGWHChFnNLOmyEC3T0Xx-26" target="fyGPEh1QH60FLGqY0S4b-165" edge="1">
          <mxGeometry relative="1" as="geometry"/>
        </mxCell>
        <mxCell id="kGWHChFnNLOmyEC3T0Xx-26" value="Appartiene" style="shape=rhombus;perimeter=rhombusPerimeter;whiteSpace=wrap;html=1;align=center;" parent="1" vertex="1">
          <mxGeometry x="-360" y="940" width="120" height="60" as="geometry"/>
        </mxCell>
        <mxCell id="kGWHChFnNLOmyEC3T0Xx-33" style="edgeStyle=orthogonalEdgeStyle;rounded=0;orthogonalLoop=1;jettySize=auto;html=1;exitX=0.5;exitY=0;exitDx=0;exitDy=0;startArrow=none;startFill=0;endArrow=none;endFill=0;" parent="1" source="kGWHChFnNLOmyEC3T0Xx-27" edge="1">
          <mxGeometry relative="1" as="geometry">
            <mxPoint x="349.2857142857147" y="812.0000000000002" as="targetPoint"/>
          </mxGeometry>
        </mxCell>
        <mxCell id="kGWHChFnNLOmyEC3T0Xx-41" style="edgeStyle=orthogonalEdgeStyle;rounded=0;orthogonalLoop=1;jettySize=auto;html=1;exitX=0.5;exitY=1;exitDx=0;exitDy=0;startArrow=none;startFill=0;endArrow=none;endFill=0;" parent="1" source="kGWHChFnNLOmyEC3T0Xx-27" target="fyGPEh1QH60FLGqY0S4b-131" edge="1">
          <mxGeometry relative="1" as="geometry"/>
        </mxCell>
        <mxCell id="kGWHChFnNLOmyEC3T0Xx-27" value="Appartiene" style="shape=rhombus;perimeter=rhombusPerimeter;whiteSpace=wrap;html=1;align=center;" parent="1" vertex="1">
          <mxGeometry x="-100" y="940" width="120" height="60" as="geometry"/>
        </mxCell>
        <mxCell id="kGWHChFnNLOmyEC3T0Xx-34" style="edgeStyle=orthogonalEdgeStyle;rounded=0;orthogonalLoop=1;jettySize=auto;html=1;exitX=0.5;exitY=0;exitDx=0;exitDy=0;startArrow=none;startFill=0;endArrow=none;endFill=0;" parent="1" source="kGWHChFnNLOmyEC3T0Xx-28" edge="1">
          <mxGeometry relative="1" as="geometry">
            <mxPoint x="349.2857142857147" y="812.0000000000002" as="targetPoint"/>
          </mxGeometry>
        </mxCell>
        <mxCell id="kGWHChFnNLOmyEC3T0Xx-42" style="edgeStyle=orthogonalEdgeStyle;rounded=0;orthogonalLoop=1;jettySize=auto;html=1;exitX=0.5;exitY=1;exitDx=0;exitDy=0;startArrow=none;startFill=0;endArrow=none;endFill=0;" parent="1" source="kGWHChFnNLOmyEC3T0Xx-28" target="fyGPEh1QH60FLGqY0S4b-63" edge="1">
          <mxGeometry relative="1" as="geometry"/>
        </mxCell>
        <mxCell id="kGWHChFnNLOmyEC3T0Xx-28" value="Appartiene" style="shape=rhombus;perimeter=rhombusPerimeter;whiteSpace=wrap;html=1;align=center;" parent="1" vertex="1">
          <mxGeometry x="200" y="940" width="120" height="60" as="geometry"/>
        </mxCell>
        <mxCell id="kGWHChFnNLOmyEC3T0Xx-38" style="edgeStyle=orthogonalEdgeStyle;rounded=0;orthogonalLoop=1;jettySize=auto;html=1;exitX=0.5;exitY=0;exitDx=0;exitDy=0;startArrow=none;startFill=0;endArrow=none;endFill=0;" parent="1" source="kGWHChFnNLOmyEC3T0Xx-29" edge="1">
          <mxGeometry relative="1" as="geometry">
            <mxPoint x="349.2857142857147" y="812.0000000000002" as="targetPoint"/>
          </mxGeometry>
        </mxCell>
        <mxCell id="kGWHChFnNLOmyEC3T0Xx-43" style="edgeStyle=orthogonalEdgeStyle;rounded=0;orthogonalLoop=1;jettySize=auto;html=1;exitX=0.5;exitY=1;exitDx=0;exitDy=0;startArrow=none;startFill=0;endArrow=none;endFill=0;" parent="1" source="kGWHChFnNLOmyEC3T0Xx-29" target="fyGPEh1QH60FLGqY0S4b-85" edge="1">
          <mxGeometry relative="1" as="geometry"/>
        </mxCell>
        <mxCell id="kGWHChFnNLOmyEC3T0Xx-29" value="Appartiene" style="shape=rhombus;perimeter=rhombusPerimeter;whiteSpace=wrap;html=1;align=center;" parent="1" vertex="1">
          <mxGeometry x="475" y="940" width="120" height="60" as="geometry"/>
        </mxCell>
        <mxCell id="kGWHChFnNLOmyEC3T0Xx-37" style="edgeStyle=orthogonalEdgeStyle;rounded=0;orthogonalLoop=1;jettySize=auto;html=1;exitX=0.5;exitY=0;exitDx=0;exitDy=0;startArrow=none;startFill=0;endArrow=none;endFill=0;" parent="1" source="kGWHChFnNLOmyEC3T0Xx-30" edge="1">
          <mxGeometry relative="1" as="geometry">
            <mxPoint x="349.2857142857147" y="812.0000000000002" as="targetPoint"/>
          </mxGeometry>
        </mxCell>
        <mxCell id="kGWHChFnNLOmyEC3T0Xx-44" style="edgeStyle=orthogonalEdgeStyle;rounded=0;orthogonalLoop=1;jettySize=auto;html=1;exitX=0.5;exitY=1;exitDx=0;exitDy=0;startArrow=none;startFill=0;endArrow=none;endFill=0;" parent="1" source="kGWHChFnNLOmyEC3T0Xx-30" target="fyGPEh1QH60FLGqY0S4b-183" edge="1">
          <mxGeometry relative="1" as="geometry"/>
        </mxCell>
        <mxCell id="kGWHChFnNLOmyEC3T0Xx-30" value="Appartiene" style="shape=rhombus;perimeter=rhombusPerimeter;whiteSpace=wrap;html=1;align=center;" parent="1" vertex="1">
          <mxGeometry x="780" y="940" width="120" height="60" as="geometry"/>
        </mxCell>
        <mxCell id="kGWHChFnNLOmyEC3T0Xx-39" style="edgeStyle=orthogonalEdgeStyle;rounded=0;orthogonalLoop=1;jettySize=auto;html=1;exitX=0.5;exitY=0;exitDx=0;exitDy=0;startArrow=none;startFill=0;endArrow=none;endFill=0;" parent="1" source="kGWHChFnNLOmyEC3T0Xx-31" edge="1">
          <mxGeometry relative="1" as="geometry">
            <mxPoint x="349.2857142857147" y="812.0000000000002" as="targetPoint"/>
          </mxGeometry>
        </mxCell>
        <mxCell id="kGWHChFnNLOmyEC3T0Xx-45" style="edgeStyle=orthogonalEdgeStyle;rounded=0;orthogonalLoop=1;jettySize=auto;html=1;exitX=0.5;exitY=1;exitDx=0;exitDy=0;startArrow=none;startFill=0;endArrow=none;endFill=0;" parent="1" source="kGWHChFnNLOmyEC3T0Xx-31" target="fyGPEh1QH60FLGqY0S4b-230" edge="1">
          <mxGeometry relative="1" as="geometry"/>
        </mxCell>
        <mxCell id="kGWHChFnNLOmyEC3T0Xx-31" value="Appartiene" style="shape=rhombus;perimeter=rhombusPerimeter;whiteSpace=wrap;html=1;align=center;" parent="1" vertex="1">
          <mxGeometry x="1030" y="940" width="120" height="60" as="geometry"/>
        </mxCell>
        <mxCell id="kGWHChFnNLOmyEC3T0Xx-66" value="[1,N]" style="text;html=1;align=center;verticalAlign=middle;resizable=0;points=[];autosize=1;fontSize=14;" parent="1" vertex="1">
          <mxGeometry x="1010" y="1190" width="50" height="20" as="geometry"/>
        </mxCell>
        <mxCell id="kGWHChFnNLOmyEC3T0Xx-68" value="[1,N]" style="text;html=1;align=center;verticalAlign=middle;resizable=0;points=[];autosize=1;fontSize=14;" parent="1" vertex="1">
          <mxGeometry x="180" y="1184" width="50" height="20" as="geometry"/>
        </mxCell>
        <mxCell id="kGWHChFnNLOmyEC3T0Xx-70" value="Ora" style="text;html=1;align=center;verticalAlign=middle;resizable=0;points=[];autosize=1;" parent="1" vertex="1">
          <mxGeometry x="60" y="659.5" width="40" height="20" as="geometry"/>
        </mxCell>
        <mxCell id="JKyJmAXLsVFuIjxXHFtV-1" value="DomandeTot" style="swimlane;fontStyle=0;childLayout=stackLayout;horizontal=1;startSize=26;fillColor=#e0e0e0;horizontalStack=0;resizeParent=1;resizeParentMax=0;resizeLast=0;collapsible=1;marginBottom=0;swimlaneFillColor=#ffffff;align=center;fontSize=14;" parent="1" vertex="1">
          <mxGeometry x="-1140" y="1128" width="220" height="56" as="geometry"/>
        </mxCell>
        <mxCell id="JKyJmAXLsVFuIjxXHFtV-2" value="idDomande" style="shape=partialRectangle;top=0;left=0;right=0;bottom=1;align=left;verticalAlign=middle;fillColor=none;spacingLeft=34;spacingRight=4;overflow=hidden;rotatable=0;points=[[0,0.5],[1,0.5]];portConstraint=eastwest;dropTarget=0;fontStyle=5;fontSize=12;" parent="JKyJmAXLsVFuIjxXHFtV-1" vertex="1">
          <mxGeometry y="26" width="220" height="30" as="geometry"/>
        </mxCell>
        <mxCell id="JKyJmAXLsVFuIjxXHFtV-3" value="PK" style="shape=partialRectangle;top=0;left=0;bottom=0;fillColor=none;align=left;verticalAlign=middle;spacingLeft=4;spacingRight=4;overflow=hidden;rotatable=0;points=[];portConstraint=eastwest;part=1;fontSize=12;" parent="JKyJmAXLsVFuIjxXHFtV-2" vertex="1" connectable="0">
          <mxGeometry width="30" height="30" as="geometry"/>
        </mxCell>
        <mxCell id="JKyJmAXLsVFuIjxXHFtV-10" style="edgeStyle=orthogonalEdgeStyle;rounded=0;orthogonalLoop=1;jettySize=auto;html=1;exitX=0.5;exitY=1;exitDx=0;exitDy=0;startArrow=none;startFill=0;endArrow=oval;endFill=0;" parent="1" source="JKyJmAXLsVFuIjxXHFtV-12" edge="1">
          <mxGeometry relative="1" as="geometry">
            <mxPoint x="-940.3333333333333" y="964" as="targetPoint"/>
          </mxGeometry>
        </mxCell>
        <mxCell id="JKyJmAXLsVFuIjxXHFtV-11" style="edgeStyle=orthogonalEdgeStyle;rounded=0;orthogonalLoop=1;jettySize=auto;html=1;exitX=1;exitY=1;exitDx=0;exitDy=0;startArrow=none;startFill=0;endArrow=oval;endFill=0;" parent="1" source="JKyJmAXLsVFuIjxXHFtV-12" edge="1">
          <mxGeometry relative="1" as="geometry">
            <mxPoint x="-910.3333333333333" y="934" as="targetPoint"/>
          </mxGeometry>
        </mxCell>
        <mxCell id="JKyJmAXLsVFuIjxXHFtV-20" style="edgeStyle=orthogonalEdgeStyle;rounded=0;orthogonalLoop=1;jettySize=auto;html=1;exitX=0;exitY=0.5;exitDx=0;exitDy=0;entryX=0.5;entryY=0;entryDx=0;entryDy=0;endArrow=none;endFill=0;" parent="1" source="JKyJmAXLsVFuIjxXHFtV-12" target="JKyJmAXLsVFuIjxXHFtV-1" edge="1">
          <mxGeometry relative="1" as="geometry"/>
        </mxCell>
        <mxCell id="cOFafZk5vDdd5omZY6wX-6" style="edgeStyle=orthogonalEdgeStyle;rounded=0;orthogonalLoop=1;jettySize=auto;html=1;exitX=1;exitY=0.5;exitDx=0;exitDy=0;endArrow=none;endFill=0;" edge="1" parent="1" source="JKyJmAXLsVFuIjxXHFtV-12" target="fyGPEh1QH60FLGqY0S4b-1">
          <mxGeometry relative="1" as="geometry">
            <Array as="points">
              <mxPoint x="-320" y="894"/>
              <mxPoint x="-320" y="860"/>
              <mxPoint x="-280" y="860"/>
            </Array>
          </mxGeometry>
        </mxCell>
        <mxCell id="cOFafZk5vDdd5omZY6wX-27" style="edgeStyle=orthogonalEdgeStyle;rounded=0;orthogonalLoop=1;jettySize=auto;html=1;exitX=0.5;exitY=0;exitDx=0;exitDy=0;startArrow=none;startFill=0;endArrow=oval;endFill=0;" edge="1" parent="1" source="JKyJmAXLsVFuIjxXHFtV-12" target="cOFafZk5vDdd5omZY6wX-26">
          <mxGeometry relative="1" as="geometry"/>
        </mxCell>
        <mxCell id="JKyJmAXLsVFuIjxXHFtV-12" value="RispoSingola" style="shape=rhombus;perimeter=rhombusPerimeter;whiteSpace=wrap;html=1;align=center;" parent="1" vertex="1">
          <mxGeometry x="-1000" y="864" width="120" height="60" as="geometry"/>
        </mxCell>
        <mxCell id="JKyJmAXLsVFuIjxXHFtV-13" value="" style="endArrow=none;html=1;entryX=0;entryY=1;entryDx=0;entryDy=0;endFill=0;startArrow=oval;startFill=0;" parent="1" target="JKyJmAXLsVFuIjxXHFtV-12" edge="1">
          <mxGeometry width="50" height="50" relative="1" as="geometry">
            <mxPoint x="-970" y="934" as="sourcePoint"/>
            <mxPoint x="-970" y="944" as="targetPoint"/>
          </mxGeometry>
        </mxCell>
        <mxCell id="JKyJmAXLsVFuIjxXHFtV-14" value="Data" style="text;html=1;align=center;verticalAlign=middle;resizable=0;points=[];autosize=1;" parent="1" vertex="1">
          <mxGeometry x="-990" y="944" width="40" height="20" as="geometry"/>
        </mxCell>
        <mxCell id="JKyJmAXLsVFuIjxXHFtV-15" value="Ora" style="text;html=1;align=center;verticalAlign=middle;resizable=0;points=[];autosize=1;" parent="1" vertex="1">
          <mxGeometry x="-960" y="974" width="40" height="20" as="geometry"/>
        </mxCell>
        <mxCell id="JKyJmAXLsVFuIjxXHFtV-16" value="Punteggio" style="text;html=1;align=center;verticalAlign=middle;resizable=0;points=[];autosize=1;" parent="1" vertex="1">
          <mxGeometry x="-930" y="944" width="70" height="20" as="geometry"/>
        </mxCell>
        <mxCell id="cOFafZk5vDdd5omZY6wX-7" style="edgeStyle=orthogonalEdgeStyle;rounded=0;orthogonalLoop=1;jettySize=auto;html=1;exitX=1;exitY=0.5;exitDx=0;exitDy=0;endArrow=none;endFill=0;" edge="1" parent="1" source="JKyJmAXLsVFuIjxXHFtV-22" target="JKyJmAXLsVFuIjxXHFtV-2">
          <mxGeometry relative="1" as="geometry"/>
        </mxCell>
        <mxCell id="cOFafZk5vDdd5omZY6wX-14" style="edgeStyle=orthogonalEdgeStyle;rounded=0;orthogonalLoop=1;jettySize=auto;html=1;exitX=0;exitY=0.5;exitDx=0;exitDy=0;entryX=0;entryY=0.5;entryDx=0;entryDy=0;endArrow=none;endFill=0;" edge="1" parent="1" source="JKyJmAXLsVFuIjxXHFtV-22" target="fyGPEh1QH60FLGqY0S4b-181">
          <mxGeometry relative="1" as="geometry">
            <Array as="points">
              <mxPoint x="-1480" y="954"/>
              <mxPoint x="-1480" y="1650"/>
              <mxPoint x="-490" y="1650"/>
              <mxPoint x="-490" y="1135"/>
            </Array>
          </mxGeometry>
        </mxCell>
        <mxCell id="JKyJmAXLsVFuIjxXHFtV-22" value="A1" style="shape=rhombus;perimeter=rhombusPerimeter;whiteSpace=wrap;html=1;align=center;" parent="1" vertex="1">
          <mxGeometry x="-1410" y="924" width="120" height="60" as="geometry"/>
        </mxCell>
        <mxCell id="cOFafZk5vDdd5omZY6wX-8" style="edgeStyle=orthogonalEdgeStyle;rounded=0;orthogonalLoop=1;jettySize=auto;html=1;exitX=1;exitY=0.5;exitDx=0;exitDy=0;endArrow=none;endFill=0;" edge="1" parent="1" source="JKyJmAXLsVFuIjxXHFtV-23" target="JKyJmAXLsVFuIjxXHFtV-2">
          <mxGeometry relative="1" as="geometry"/>
        </mxCell>
        <mxCell id="cOFafZk5vDdd5omZY6wX-15" style="edgeStyle=orthogonalEdgeStyle;rounded=0;orthogonalLoop=1;jettySize=auto;html=1;exitX=0;exitY=0.5;exitDx=0;exitDy=0;entryX=0;entryY=0.5;entryDx=0;entryDy=0;endArrow=none;endFill=0;" edge="1" parent="1" source="JKyJmAXLsVFuIjxXHFtV-23" target="fyGPEh1QH60FLGqY0S4b-134">
          <mxGeometry relative="1" as="geometry">
            <Array as="points">
              <mxPoint x="-1480" y="1044"/>
              <mxPoint x="-1480" y="1650"/>
              <mxPoint x="-170" y="1650"/>
              <mxPoint x="-170" y="1145"/>
            </Array>
          </mxGeometry>
        </mxCell>
        <mxCell id="JKyJmAXLsVFuIjxXHFtV-23" value="A2" style="shape=rhombus;perimeter=rhombusPerimeter;whiteSpace=wrap;html=1;align=center;" parent="1" vertex="1">
          <mxGeometry x="-1410" y="1014" width="120" height="60" as="geometry"/>
        </mxCell>
        <mxCell id="cOFafZk5vDdd5omZY6wX-9" style="edgeStyle=orthogonalEdgeStyle;rounded=0;orthogonalLoop=1;jettySize=auto;html=1;exitX=1;exitY=0.5;exitDx=0;exitDy=0;endArrow=none;endFill=0;" edge="1" parent="1" source="JKyJmAXLsVFuIjxXHFtV-24" target="JKyJmAXLsVFuIjxXHFtV-2">
          <mxGeometry relative="1" as="geometry"/>
        </mxCell>
        <mxCell id="cOFafZk5vDdd5omZY6wX-16" style="edgeStyle=orthogonalEdgeStyle;rounded=0;orthogonalLoop=1;jettySize=auto;html=1;exitX=0;exitY=0.5;exitDx=0;exitDy=0;entryX=0;entryY=0.5;entryDx=0;entryDy=0;endArrow=none;endFill=0;" edge="1" parent="1" source="JKyJmAXLsVFuIjxXHFtV-24" target="kGWHChFnNLOmyEC3T0Xx-146">
          <mxGeometry relative="1" as="geometry">
            <Array as="points">
              <mxPoint x="-1480" y="1144"/>
              <mxPoint x="-1480" y="1650"/>
              <mxPoint x="100" y="1650"/>
              <mxPoint x="100" y="1145"/>
            </Array>
          </mxGeometry>
        </mxCell>
        <mxCell id="JKyJmAXLsVFuIjxXHFtV-24" value="A3" style="shape=rhombus;perimeter=rhombusPerimeter;whiteSpace=wrap;html=1;align=center;" parent="1" vertex="1">
          <mxGeometry x="-1410" y="1114" width="120" height="60" as="geometry"/>
        </mxCell>
        <mxCell id="cOFafZk5vDdd5omZY6wX-10" style="edgeStyle=orthogonalEdgeStyle;rounded=0;orthogonalLoop=1;jettySize=auto;html=1;exitX=1;exitY=0.5;exitDx=0;exitDy=0;endArrow=none;endFill=0;" edge="1" parent="1" source="JKyJmAXLsVFuIjxXHFtV-25" target="JKyJmAXLsVFuIjxXHFtV-2">
          <mxGeometry relative="1" as="geometry"/>
        </mxCell>
        <mxCell id="cOFafZk5vDdd5omZY6wX-17" style="edgeStyle=orthogonalEdgeStyle;rounded=0;orthogonalLoop=1;jettySize=auto;html=1;exitX=0;exitY=0.5;exitDx=0;exitDy=0;entryX=0;entryY=0.5;entryDx=0;entryDy=0;endArrow=none;endFill=0;" edge="1" parent="1" source="JKyJmAXLsVFuIjxXHFtV-25" target="fyGPEh1QH60FLGqY0S4b-90">
          <mxGeometry relative="1" as="geometry">
            <Array as="points">
              <mxPoint x="-1480" y="1240"/>
              <mxPoint x="-1480" y="1650"/>
              <mxPoint x="390" y="1650"/>
              <mxPoint x="390" y="1141"/>
            </Array>
          </mxGeometry>
        </mxCell>
        <mxCell id="JKyJmAXLsVFuIjxXHFtV-25" value="A4" style="shape=rhombus;perimeter=rhombusPerimeter;whiteSpace=wrap;html=1;align=center;" parent="1" vertex="1">
          <mxGeometry x="-1410" y="1210" width="120" height="60" as="geometry"/>
        </mxCell>
        <mxCell id="cOFafZk5vDdd5omZY6wX-11" style="edgeStyle=orthogonalEdgeStyle;rounded=0;orthogonalLoop=1;jettySize=auto;html=1;exitX=1;exitY=0.5;exitDx=0;exitDy=0;endArrow=none;endFill=0;" edge="1" parent="1" source="JKyJmAXLsVFuIjxXHFtV-26" target="JKyJmAXLsVFuIjxXHFtV-2">
          <mxGeometry relative="1" as="geometry"/>
        </mxCell>
        <mxCell id="cOFafZk5vDdd5omZY6wX-18" style="edgeStyle=orthogonalEdgeStyle;rounded=0;orthogonalLoop=1;jettySize=auto;html=1;exitX=0;exitY=0.5;exitDx=0;exitDy=0;entryX=0;entryY=0.5;entryDx=0;entryDy=0;endArrow=none;endFill=0;" edge="1" parent="1" source="JKyJmAXLsVFuIjxXHFtV-26" target="fyGPEh1QH60FLGqY0S4b-188">
          <mxGeometry relative="1" as="geometry">
            <Array as="points">
              <mxPoint x="-1480" y="1340"/>
              <mxPoint x="-1480" y="1650"/>
              <mxPoint x="690" y="1650"/>
              <mxPoint x="690" y="1135"/>
            </Array>
          </mxGeometry>
        </mxCell>
        <mxCell id="JKyJmAXLsVFuIjxXHFtV-26" value="A5" style="shape=rhombus;perimeter=rhombusPerimeter;whiteSpace=wrap;html=1;align=center;" parent="1" vertex="1">
          <mxGeometry x="-1410" y="1310" width="120" height="60" as="geometry"/>
        </mxCell>
        <mxCell id="cOFafZk5vDdd5omZY6wX-12" style="edgeStyle=orthogonalEdgeStyle;rounded=0;orthogonalLoop=1;jettySize=auto;html=1;exitX=1;exitY=0.5;exitDx=0;exitDy=0;endArrow=none;endFill=0;" edge="1" parent="1" source="JKyJmAXLsVFuIjxXHFtV-27" target="JKyJmAXLsVFuIjxXHFtV-2">
          <mxGeometry relative="1" as="geometry"/>
        </mxCell>
        <mxCell id="cOFafZk5vDdd5omZY6wX-19" style="edgeStyle=orthogonalEdgeStyle;rounded=0;orthogonalLoop=1;jettySize=auto;html=1;exitX=0;exitY=0.5;exitDx=0;exitDy=0;entryX=0;entryY=0.5;entryDx=0;entryDy=0;endArrow=none;endFill=0;" edge="1" parent="1" source="JKyJmAXLsVFuIjxXHFtV-27" target="fyGPEh1QH60FLGqY0S4b-235">
          <mxGeometry relative="1" as="geometry">
            <Array as="points">
              <mxPoint x="-1480" y="1437"/>
              <mxPoint x="-1480" y="1650"/>
              <mxPoint x="950" y="1650"/>
              <mxPoint x="950" y="1135"/>
            </Array>
          </mxGeometry>
        </mxCell>
        <mxCell id="JKyJmAXLsVFuIjxXHFtV-27" value="A6" style="shape=rhombus;perimeter=rhombusPerimeter;whiteSpace=wrap;html=1;align=center;" parent="1" vertex="1">
          <mxGeometry x="-1410" y="1407" width="120" height="60" as="geometry"/>
        </mxCell>
        <mxCell id="JKyJmAXLsVFuIjxXHFtV-50" value="[1,1]" style="text;html=1;align=center;verticalAlign=middle;resizable=0;points=[];autosize=1;" parent="1" vertex="1">
          <mxGeometry x="-1180" y="1146" width="40" height="20" as="geometry"/>
        </mxCell>
        <mxCell id="JKyJmAXLsVFuIjxXHFtV-51" value="[1,1]" style="text;html=1;align=center;verticalAlign=middle;resizable=0;points=[];autosize=1;" parent="1" vertex="1">
          <mxGeometry x="-430" y="1085.76" width="40" height="20" as="geometry"/>
        </mxCell>
        <mxCell id="JKyJmAXLsVFuIjxXHFtV-52" value="[1,1]" style="text;html=1;align=center;verticalAlign=middle;resizable=0;points=[];autosize=1;" parent="1" vertex="1">
          <mxGeometry x="-160" y="1102" width="40" height="20" as="geometry"/>
        </mxCell>
        <mxCell id="JKyJmAXLsVFuIjxXHFtV-53" value="[1,1]" style="text;html=1;align=center;verticalAlign=middle;resizable=0;points=[];autosize=1;" parent="1" vertex="1">
          <mxGeometry x="135" y="1102" width="40" height="20" as="geometry"/>
        </mxCell>
        <mxCell id="JKyJmAXLsVFuIjxXHFtV-54" value="[1,1]" style="text;html=1;align=center;verticalAlign=middle;resizable=0;points=[];autosize=1;" parent="1" vertex="1">
          <mxGeometry x="410" y="1094" width="40" height="20" as="geometry"/>
        </mxCell>
        <mxCell id="JKyJmAXLsVFuIjxXHFtV-55" value="[1,1]" style="text;html=1;align=center;verticalAlign=middle;resizable=0;points=[];autosize=1;" parent="1" vertex="1">
          <mxGeometry x="720" y="1095" width="40" height="20" as="geometry"/>
        </mxCell>
        <mxCell id="JKyJmAXLsVFuIjxXHFtV-56" value="[1,1]" style="text;html=1;align=center;verticalAlign=middle;resizable=0;points=[];autosize=1;" parent="1" vertex="1">
          <mxGeometry x="970" y="1085.76" width="40" height="20" as="geometry"/>
        </mxCell>
        <mxCell id="JKyJmAXLsVFuIjxXHFtV-57" value="[1,N]" style="text;html=1;align=center;verticalAlign=middle;resizable=0;points=[];autosize=1;" parent="1" vertex="1">
          <mxGeometry x="300" y="808" width="50" height="20" as="geometry"/>
        </mxCell>
        <mxCell id="JKyJmAXLsVFuIjxXHFtV-58" value="[1,1]" style="text;html=1;align=center;verticalAlign=middle;resizable=0;points=[];autosize=1;" parent="1" vertex="1">
          <mxGeometry x="-280" y="994" width="40" height="20" as="geometry"/>
        </mxCell>
        <mxCell id="JKyJmAXLsVFuIjxXHFtV-59" value="[1,1]" style="text;html=1;align=center;verticalAlign=middle;resizable=0;points=[];autosize=1;" parent="1" vertex="1">
          <mxGeometry x="-30" y="1004" width="40" height="20" as="geometry"/>
        </mxCell>
        <mxCell id="JKyJmAXLsVFuIjxXHFtV-60" value="[1,1]" style="text;html=1;align=center;verticalAlign=middle;resizable=0;points=[];autosize=1;" parent="1" vertex="1">
          <mxGeometry x="290" y="1004" width="40" height="20" as="geometry"/>
        </mxCell>
        <mxCell id="JKyJmAXLsVFuIjxXHFtV-61" value="[1,1]" style="text;html=1;align=center;verticalAlign=middle;resizable=0;points=[];autosize=1;" parent="1" vertex="1">
          <mxGeometry x="570" y="1000" width="40" height="20" as="geometry"/>
        </mxCell>
        <mxCell id="JKyJmAXLsVFuIjxXHFtV-62" value="[1,1]" style="text;html=1;align=center;verticalAlign=middle;resizable=0;points=[];autosize=1;" parent="1" vertex="1">
          <mxGeometry x="880" y="994" width="40" height="20" as="geometry"/>
        </mxCell>
        <mxCell id="JKyJmAXLsVFuIjxXHFtV-63" value="[1,1]" style="text;html=1;align=center;verticalAlign=middle;resizable=0;points=[];autosize=1;" parent="1" vertex="1">
          <mxGeometry x="1130" y="994" width="40" height="20" as="geometry"/>
        </mxCell>
        <mxCell id="JKyJmAXLsVFuIjxXHFtV-66" value="[0,N]" style="text;html=1;align=center;verticalAlign=middle;resizable=0;points=[];autosize=1;" parent="1" vertex="1">
          <mxGeometry x="-1080" y="1102" width="50" height="20" as="geometry"/>
        </mxCell>
        <mxCell id="cOFafZk5vDdd5omZY6wX-13" value="[0,N]" style="text;html=1;align=center;verticalAlign=middle;resizable=0;points=[];autosize=1;" vertex="1" parent="1">
          <mxGeometry x="-280" y="828" width="50" height="20" as="geometry"/>
        </mxCell>
        <mxCell id="cOFafZk5vDdd5omZY6wX-24" value="idGiocata" style="text;html=1;align=center;verticalAlign=middle;resizable=0;points=[];autosize=1;" vertex="1" parent="1">
          <mxGeometry x="45" y="818.5" width="70" height="20" as="geometry"/>
        </mxCell>
        <mxCell id="cOFafZk5vDdd5omZY6wX-26" value="idRispoSingola" style="text;html=1;align=center;verticalAlign=middle;resizable=0;points=[];autosize=1;" vertex="1" parent="1">
          <mxGeometry x="-995" y="818.5" width="110" height="20" as="geometry"/>
        </mxCell>
      </root>
    </mxGraphModel>
  </diagram>
</mxfile>
